<?xml version="1.0" encoding="utf-8" standalone="no"?>
<!DOCTYPE svg PUBLIC "-//W3C//DTD SVG 1.1//EN"
  "http://www.w3.org/Graphics/SVG/1.1/DTD/svg11.dtd">
<svg xmlns:xlink="http://www.w3.org/1999/xlink" width="404.352031pt" height="286.39063pt" viewBox="0 0 404.352031 286.39063" xmlns="http://www.w3.org/2000/svg" version="1.1">
 <metadata>
  <rdf:RDF xmlns:dc="http://purl.org/dc/elements/1.1/" xmlns:cc="http://creativecommons.org/ns#" xmlns:rdf="http://www.w3.org/1999/02/22-rdf-syntax-ns#">
   <cc:Work>
    <dc:type rdf:resource="http://purl.org/dc/dcmitype/StillImage"/>
    <dc:date>2024-05-06T15:15:30.978230</dc:date>
    <dc:format>image/svg+xml</dc:format>
    <dc:creator>
     <cc:Agent>
      <dc:title>Matplotlib v3.8.2, https://matplotlib.org/</dc:title>
     </cc:Agent>
    </dc:creator>
   </cc:Work>
  </rdf:RDF>
 </metadata>
 <defs>
  <style type="text/css">*{stroke-linejoin: round; stroke-linecap: butt}</style>
 </defs>
 <g id="figure_1">
  <g id="patch_1">
   <path d="M 0 286.39063 
L 404.352031 286.39063 
L 404.352031 0 
L 0 0 
z
" style="fill: #ffffff"/>
  </g>
  <g id="axes_1">
   <g id="patch_2">
    <path d="M 40.032031 242.208 
L 397.152031 242.208 
L 397.152031 7.2 
L 40.032031 7.2 
z
" style="fill: #ffffff"/>
   </g>
   <g id="matplotlib.axis_1">
    <g id="xtick_1">
     <g id="line2d_1">
      <defs>
       <path id="maa4328a697" d="M 0 0 
L 0 3.5 
" style="stroke: #000000; stroke-width: 0.8"/>
      </defs>
      <g>
       <use xlink:href="#maa4328a697" x="47.916499" y="242.208" style="stroke: #000000; stroke-width: 0.8"/>
      </g>
     </g>
     <g id="text_1">
      <!-- 00:00 -->
      <g transform="translate(27.850849 266.029656) rotate(-30) scale(0.09 -0.09)">
       <defs>
        <path id="SimSun-30" d="M 1600 4225 
Q 1250 4225 1012 3687 
Q 775 3150 775 2250 
Q 775 1300 1012 775 
Q 1250 250 1600 250 
Q 1975 250 2187 775 
Q 2400 1300 2400 2250 
Q 2400 3150 2200 3687 
Q 2000 4225 1600 4225 
z
M 1600 50 
Q 1050 50 675 625 
Q 300 1200 300 2250 
Q 300 3225 662 3825 
Q 1025 4425 1600 4425 
Q 2150 4425 2512 3850 
Q 2875 3275 2875 2250 
Q 2875 1225 2512 637 
Q 2150 50 1600 50 
z
" transform="scale(0.015625)"/>
        <path id="SimSun-3a" d="M 1900 2725 
Q 1900 2575 1800 2475 
Q 1700 2375 1550 2375 
Q 1400 2375 1300 2475 
Q 1200 2575 1200 2725 
Q 1200 2875 1300 2975 
Q 1400 3075 1550 3075 
Q 1700 3075 1800 2975 
Q 1900 2875 1900 2725 
z
M 1900 375 
Q 1900 225 1800 125 
Q 1700 25 1550 25 
Q 1400 25 1300 125 
Q 1200 225 1200 375 
Q 1200 525 1300 625 
Q 1400 725 1550 725 
Q 1700 725 1800 625 
Q 1900 525 1900 375 
z
" transform="scale(0.015625)"/>
       </defs>
       <use xlink:href="#SimSun-30"/>
       <use xlink:href="#SimSun-30" x="50"/>
       <use xlink:href="#SimSun-3a" x="100"/>
       <use xlink:href="#SimSun-30" x="150"/>
       <use xlink:href="#SimSun-30" x="200"/>
      </g>
     </g>
    </g>
    <g id="xtick_2">
     <g id="line2d_2">
      <g>
       <use xlink:href="#maa4328a697" x="75.744031" y="242.208" style="stroke: #000000; stroke-width: 0.8"/>
      </g>
     </g>
     <g id="text_2">
      <!-- 01:00 -->
      <g transform="translate(55.678382 266.029656) rotate(-30) scale(0.09 -0.09)">
       <defs>
        <path id="SimSun-31" d="M 1825 4450 
L 1825 650 
Q 1825 450 1950 350 
Q 2075 250 2300 250 
L 2550 250 
L 2550 100 
L 725 100 
L 725 250 
L 950 250 
Q 1200 250 1312 350 
Q 1425 450 1425 650 
L 1425 3675 
Q 1425 3775 1362 3837 
Q 1300 3900 1175 3900 
L 725 3900 
L 725 4050 
L 950 4050 
Q 1250 4050 1437 4150 
Q 1625 4250 1725 4450 
L 1825 4450 
z
" transform="scale(0.015625)"/>
       </defs>
       <use xlink:href="#SimSun-30"/>
       <use xlink:href="#SimSun-31" x="50"/>
       <use xlink:href="#SimSun-3a" x="100"/>
       <use xlink:href="#SimSun-30" x="150"/>
       <use xlink:href="#SimSun-30" x="200"/>
      </g>
     </g>
    </g>
    <g id="xtick_3">
     <g id="line2d_3">
      <g>
       <use xlink:href="#maa4328a697" x="103.571564" y="242.208" style="stroke: #000000; stroke-width: 0.8"/>
      </g>
     </g>
     <g id="text_3">
      <!-- 02:00 -->
      <g transform="translate(83.505914 266.029656) rotate(-30) scale(0.09 -0.09)">
       <defs>
        <path id="SimSun-32" d="M 2325 3325 
Q 2325 3775 2125 4012 
Q 1925 4250 1525 4250 
Q 1225 4250 1012 4087 
Q 800 3925 800 3675 
Q 800 3525 900 3425 
Q 975 3325 975 3225 
Q 975 3100 912 3037 
Q 850 2975 725 2975 
Q 575 2975 487 3062 
Q 400 3150 400 3350 
Q 400 3875 775 4150 
Q 1150 4425 1575 4425 
Q 2175 4425 2462 4125 
Q 2750 3825 2750 3375 
Q 2750 3075 2612 2775 
Q 2475 2475 2175 2200 
Q 1450 1500 1062 1062 
Q 675 625 600 475 
L 2075 475 
Q 2300 475 2450 650 
Q 2600 825 2650 1175 
L 2800 1175 
L 2650 100 
L 325 100 
L 325 425 
Q 450 650 737 1000 
Q 1025 1350 1500 1825 
Q 1925 2250 2125 2625 
Q 2325 3000 2325 3325 
z
" transform="scale(0.015625)"/>
       </defs>
       <use xlink:href="#SimSun-30"/>
       <use xlink:href="#SimSun-32" x="50"/>
       <use xlink:href="#SimSun-3a" x="100"/>
       <use xlink:href="#SimSun-30" x="150"/>
       <use xlink:href="#SimSun-30" x="200"/>
      </g>
     </g>
    </g>
    <g id="xtick_4">
     <g id="line2d_4">
      <g>
       <use xlink:href="#maa4328a697" x="131.399096" y="242.208" style="stroke: #000000; stroke-width: 0.8"/>
      </g>
     </g>
     <g id="text_4">
      <!-- 03:00 -->
      <g transform="translate(111.333446 266.029656) rotate(-30) scale(0.09 -0.09)">
       <defs>
        <path id="SimSun-33" d="M 2800 1250 
Q 2800 775 2450 412 
Q 2100 50 1475 50 
Q 1025 50 700 300 
Q 375 550 375 875 
Q 375 1025 475 1137 
Q 575 1250 675 1250 
Q 825 1250 887 1137 
Q 950 1025 950 950 
Q 950 825 900 750 
Q 850 650 850 575 
Q 850 425 1037 325 
Q 1225 225 1450 225 
Q 1900 225 2125 487 
Q 2350 750 2350 1300 
Q 2350 1750 2112 2025 
Q 1875 2300 1225 2300 
L 1225 2475 
Q 1725 2475 1962 2712 
Q 2200 2950 2200 3375 
Q 2200 3725 2012 3987 
Q 1825 4250 1425 4250 
Q 1250 4250 1050 4162 
Q 850 4075 850 3875 
Q 850 3675 900 3625 
Q 950 3575 950 3500 
Q 950 3375 900 3300 
Q 850 3225 725 3225 
Q 625 3225 537 3300 
Q 450 3375 450 3575 
Q 450 3950 775 4187 
Q 1100 4425 1525 4425 
Q 2025 4425 2325 4112 
Q 2625 3800 2625 3450 
Q 2625 3075 2437 2812 
Q 2250 2550 1850 2425 
Q 2400 2225 2600 1900 
Q 2800 1575 2800 1250 
z
" transform="scale(0.015625)"/>
       </defs>
       <use xlink:href="#SimSun-30"/>
       <use xlink:href="#SimSun-33" x="50"/>
       <use xlink:href="#SimSun-3a" x="100"/>
       <use xlink:href="#SimSun-30" x="150"/>
       <use xlink:href="#SimSun-30" x="200"/>
      </g>
     </g>
    </g>
    <g id="xtick_5">
     <g id="line2d_5">
      <g>
       <use xlink:href="#maa4328a697" x="159.226629" y="242.208" style="stroke: #000000; stroke-width: 0.8"/>
      </g>
     </g>
     <g id="text_5">
      <!-- 04:00 -->
      <g transform="translate(139.160979 266.029656) rotate(-30) scale(0.09 -0.09)">
       <defs>
        <path id="SimSun-34" d="M 2300 575 
Q 2300 400 2400 325 
Q 2500 250 2675 250 
L 2900 250 
L 2900 100 
L 1250 100 
L 1250 250 
L 1525 250 
Q 1725 250 1812 325 
Q 1900 400 1900 575 
L 1900 1400 
L 225 1400 
L 225 1525 
L 2050 4425 
L 2300 4425 
L 2300 1550 
L 2975 1550 
L 2975 1400 
L 2300 1400 
L 2300 575 
z
M 1875 3800 
L 450 1550 
L 1900 1550 
L 1900 3800 
L 1875 3800 
z
" transform="scale(0.015625)"/>
       </defs>
       <use xlink:href="#SimSun-30"/>
       <use xlink:href="#SimSun-34" x="50"/>
       <use xlink:href="#SimSun-3a" x="100"/>
       <use xlink:href="#SimSun-30" x="150"/>
       <use xlink:href="#SimSun-30" x="200"/>
      </g>
     </g>
    </g>
    <g id="xtick_6">
     <g id="line2d_6">
      <g>
       <use xlink:href="#maa4328a697" x="187.054161" y="242.208" style="stroke: #000000; stroke-width: 0.8"/>
      </g>
     </g>
     <g id="text_6">
      <!-- 05:00 -->
      <g transform="translate(166.988511 266.029656) rotate(-30) scale(0.09 -0.09)">
       <defs>
        <path id="SimSun-35" d="M 1725 2850 
Q 2200 2850 2500 2487 
Q 2800 2125 2800 1525 
Q 2800 850 2487 450 
Q 2175 50 1525 50 
Q 1075 50 725 312 
Q 375 575 375 950 
Q 375 1100 462 1212 
Q 550 1325 700 1325 
Q 850 1325 900 1225 
Q 950 1125 950 1050 
Q 950 900 875 825 
Q 800 725 800 625 
Q 800 425 1037 325 
Q 1275 225 1550 225 
Q 1950 225 2162 550 
Q 2375 875 2375 1475 
Q 2375 1975 2187 2287 
Q 2000 2600 1625 2600 
Q 1350 2600 1150 2500 
Q 950 2400 775 2075 
L 550 2100 
L 675 4375 
L 2725 4375 
L 2650 4000 
L 850 4000 
L 750 2350 
Q 1000 2700 1237 2775 
Q 1475 2850 1725 2850 
z
" transform="scale(0.015625)"/>
       </defs>
       <use xlink:href="#SimSun-30"/>
       <use xlink:href="#SimSun-35" x="50"/>
       <use xlink:href="#SimSun-3a" x="100"/>
       <use xlink:href="#SimSun-30" x="150"/>
       <use xlink:href="#SimSun-30" x="200"/>
      </g>
     </g>
    </g>
    <g id="xtick_7">
     <g id="line2d_7">
      <g>
       <use xlink:href="#maa4328a697" x="214.881694" y="242.208" style="stroke: #000000; stroke-width: 0.8"/>
      </g>
     </g>
     <g id="text_7">
      <!-- 06:00 -->
      <g transform="translate(194.816044 266.029656) rotate(-30) scale(0.09 -0.09)">
       <defs>
        <path id="SimSun-36" d="M 775 1800 
Q 775 1050 1037 637 
Q 1300 225 1675 225 
Q 2050 225 2250 500 
Q 2450 775 2450 1525 
Q 2450 2025 2237 2300 
Q 2025 2575 1725 2575 
Q 1450 2575 1212 2412 
Q 975 2250 775 1800 
z
M 1750 2825 
Q 2350 2825 2612 2425 
Q 2875 2025 2875 1525 
Q 2875 775 2512 412 
Q 2150 50 1675 50 
Q 1000 50 650 562 
Q 300 1075 300 2050 
Q 300 3200 725 3812 
Q 1150 4425 1875 4425 
Q 2225 4425 2437 4225 
Q 2650 4025 2650 3875 
Q 2650 3725 2587 3650 
Q 2525 3575 2375 3575 
Q 2250 3575 2187 3637 
Q 2125 3700 2125 3825 
Q 2125 3875 2150 3925 
Q 2150 3975 2150 4025 
Q 2150 4125 2075 4187 
Q 2000 4250 1800 4250 
Q 1375 4250 1075 3862 
Q 775 3475 775 2175 
Q 925 2500 1187 2662 
Q 1450 2825 1750 2825 
z
" transform="scale(0.015625)"/>
       </defs>
       <use xlink:href="#SimSun-30"/>
       <use xlink:href="#SimSun-36" x="50"/>
       <use xlink:href="#SimSun-3a" x="100"/>
       <use xlink:href="#SimSun-30" x="150"/>
       <use xlink:href="#SimSun-30" x="200"/>
      </g>
     </g>
    </g>
    <g id="xtick_8">
     <g id="line2d_8">
      <g>
       <use xlink:href="#maa4328a697" x="242.709226" y="242.208" style="stroke: #000000; stroke-width: 0.8"/>
      </g>
     </g>
     <g id="text_8">
      <!-- 07:00 -->
      <g transform="translate(222.643576 266.029656) rotate(-30) scale(0.09 -0.09)">
       <defs>
        <path id="SimSun-37" d="M 2825 4200 
Q 2300 3350 1987 2537 
Q 1675 1725 1675 1125 
Q 1675 1025 1700 850 
Q 1700 650 1700 400 
Q 1700 200 1637 125 
Q 1575 50 1425 50 
Q 1300 50 1212 137 
Q 1125 225 1125 450 
Q 1125 925 1337 1625 
Q 1550 2325 2475 4000 
L 1225 4000 
Q 950 4000 787 3825 
Q 625 3650 550 3300 
L 400 3325 
L 575 4375 
L 2825 4375 
L 2825 4200 
z
" transform="scale(0.015625)"/>
       </defs>
       <use xlink:href="#SimSun-30"/>
       <use xlink:href="#SimSun-37" x="50"/>
       <use xlink:href="#SimSun-3a" x="100"/>
       <use xlink:href="#SimSun-30" x="150"/>
       <use xlink:href="#SimSun-30" x="200"/>
      </g>
     </g>
    </g>
    <g id="xtick_9">
     <g id="line2d_9">
      <g>
       <use xlink:href="#maa4328a697" x="270.536759" y="242.208" style="stroke: #000000; stroke-width: 0.8"/>
      </g>
     </g>
     <g id="text_9">
      <!-- 08:00 -->
      <g transform="translate(250.471109 266.029656) rotate(-30) scale(0.09 -0.09)">
       <defs>
        <path id="SimSun-38" d="M 625 1125 
Q 625 725 887 475 
Q 1150 225 1550 225 
Q 2025 225 2237 475 
Q 2450 725 2450 1100 
Q 2450 1425 2150 1725 
Q 1850 2025 1250 2275 
Q 950 2075 787 1775 
Q 625 1475 625 1125 
z
M 2825 1175 
Q 2825 700 2475 375 
Q 2125 50 1550 50 
Q 1025 50 650 375 
Q 275 700 275 1125 
Q 275 1550 487 1850 
Q 700 2150 1100 2375 
Q 750 2550 562 2812 
Q 375 3075 375 3400 
Q 375 3825 700 4125 
Q 1025 4425 1600 4425 
Q 2125 4425 2450 4125 
Q 2775 3825 2775 3400 
Q 2775 3100 2587 2837 
Q 2400 2575 2000 2375 
Q 2425 2125 2625 1825 
Q 2825 1525 2825 1175 
z
M 2425 3375 
Q 2425 3725 2225 3987 
Q 2025 4250 1600 4250 
Q 1125 4250 925 4000 
Q 725 3750 725 3475 
Q 725 3200 1012 2937 
Q 1300 2675 1825 2475 
Q 2125 2625 2275 2850 
Q 2425 3075 2425 3375 
z
" transform="scale(0.015625)"/>
       </defs>
       <use xlink:href="#SimSun-30"/>
       <use xlink:href="#SimSun-38" x="50"/>
       <use xlink:href="#SimSun-3a" x="100"/>
       <use xlink:href="#SimSun-30" x="150"/>
       <use xlink:href="#SimSun-30" x="200"/>
      </g>
     </g>
    </g>
    <g id="xtick_10">
     <g id="line2d_10">
      <g>
       <use xlink:href="#maa4328a697" x="298.364291" y="242.208" style="stroke: #000000; stroke-width: 0.8"/>
      </g>
     </g>
     <g id="text_10">
      <!-- 09:00 -->
      <g transform="translate(278.298641 266.029656) rotate(-30) scale(0.09 -0.09)">
       <defs>
        <path id="SimSun-39" d="M 700 3050 
Q 700 2500 912 2212 
Q 1125 1925 1450 1925 
Q 1825 1925 2100 2275 
Q 2375 2625 2375 2925 
Q 2375 3525 2175 3887 
Q 1975 4250 1525 4250 
Q 1100 4250 900 3912 
Q 700 3575 700 3050 
z
M 1375 1700 
Q 875 1700 575 2012 
Q 275 2325 275 3025 
Q 275 3625 600 4025 
Q 925 4425 1525 4425 
Q 2150 4425 2500 3925 
Q 2850 3425 2850 2475 
Q 2850 1425 2437 737 
Q 2025 50 1300 50 
Q 975 50 737 200 
Q 500 350 500 600 
Q 500 700 562 800 
Q 625 900 775 900 
Q 925 900 975 787 
Q 1025 675 1025 525 
Q 1025 425 1050 362 
Q 1075 300 1100 275 
Q 1125 250 1187 237 
Q 1250 225 1325 225 
Q 1775 225 2050 725 
Q 2325 1225 2375 2400 
Q 2250 2100 2000 1900 
Q 1750 1700 1375 1700 
z
" transform="scale(0.015625)"/>
       </defs>
       <use xlink:href="#SimSun-30"/>
       <use xlink:href="#SimSun-39" x="50"/>
       <use xlink:href="#SimSun-3a" x="100"/>
       <use xlink:href="#SimSun-30" x="150"/>
       <use xlink:href="#SimSun-30" x="200"/>
      </g>
     </g>
    </g>
    <g id="xtick_11">
     <g id="line2d_11">
      <g>
       <use xlink:href="#maa4328a697" x="326.191823" y="242.208" style="stroke: #000000; stroke-width: 0.8"/>
      </g>
     </g>
     <g id="text_11">
      <!-- 10:00 -->
      <g transform="translate(306.126174 266.029656) rotate(-30) scale(0.09 -0.09)">
       <use xlink:href="#SimSun-31"/>
       <use xlink:href="#SimSun-30" x="50"/>
       <use xlink:href="#SimSun-3a" x="100"/>
       <use xlink:href="#SimSun-30" x="150"/>
       <use xlink:href="#SimSun-30" x="200"/>
      </g>
     </g>
    </g>
    <g id="xtick_12">
     <g id="line2d_12">
      <g>
       <use xlink:href="#maa4328a697" x="354.019356" y="242.208" style="stroke: #000000; stroke-width: 0.8"/>
      </g>
     </g>
     <g id="text_12">
      <!-- 11:00 -->
      <g transform="translate(333.953706 266.029656) rotate(-30) scale(0.09 -0.09)">
       <use xlink:href="#SimSun-31"/>
       <use xlink:href="#SimSun-31" x="50"/>
       <use xlink:href="#SimSun-3a" x="100"/>
       <use xlink:href="#SimSun-30" x="150"/>
       <use xlink:href="#SimSun-30" x="200"/>
      </g>
     </g>
    </g>
    <g id="xtick_13">
     <g id="line2d_13">
      <g>
       <use xlink:href="#maa4328a697" x="381.846888" y="242.208" style="stroke: #000000; stroke-width: 0.8"/>
      </g>
     </g>
     <g id="text_13">
      <!-- 12:00 -->
      <g transform="translate(361.781239 266.029656) rotate(-30) scale(0.09 -0.09)">
       <use xlink:href="#SimSun-31"/>
       <use xlink:href="#SimSun-32" x="50"/>
       <use xlink:href="#SimSun-3a" x="100"/>
       <use xlink:href="#SimSun-30" x="150"/>
       <use xlink:href="#SimSun-30" x="200"/>
      </g>
     </g>
    </g>
    <g id="text_14">
     <!-- 时间 -->
     <g transform="translate(209.592031 278.030474) scale(0.09 -0.09)">
      <defs>
       <path id="SimSun-65f6" d="M 4500 3600 
Q 4500 4575 4475 5225 
L 5100 4900 
L 4850 4725 
L 4850 3600 
L 5225 3600 
L 5550 3925 
L 6025 3450 
L 4850 3450 
L 4850 100 
Q 4850 -375 4300 -575 
Q 4275 -200 3475 -25 
L 3475 100 
Q 4150 0 4325 25 
Q 4500 50 4500 325 
L 4500 3450 
L 3200 3450 
Q 2875 3450 2600 3375 
L 2375 3600 
L 4500 3600 
z
M 2875 2825 
Q 3525 2375 3637 2200 
Q 3750 2025 3750 1925 
Q 3750 1800 3637 1637 
Q 3525 1475 3475 1475 
Q 3400 1475 3325 1775 
Q 3200 2225 2800 2750 
L 2875 2825 
z
M 925 4150 
L 925 2650 
L 1950 2650 
L 1950 4150 
L 925 4150 
z
M 925 2500 
L 925 900 
L 1950 900 
L 1950 2500 
L 925 2500 
z
M 2300 2000 
Q 2300 800 2325 450 
L 1950 250 
L 1950 750 
L 925 750 
L 925 225 
L 550 25 
Q 575 825 575 2425 
Q 575 4025 550 4500 
L 950 4300 
L 1900 4300 
L 2100 4550 
L 2500 4225 
L 2300 4050 
L 2300 2000 
z
" transform="scale(0.015625)"/>
       <path id="SimSun-95f4" d="M 2150 525 
Q 2175 1325 2175 2112 
Q 2175 2900 2150 3675 
L 2525 3450 
L 3750 3450 
L 4000 3700 
L 4325 3375 
L 4125 3200 
Q 4125 1550 4150 775 
L 3800 575 
L 3800 975 
L 2500 975 
L 2500 700 
L 2150 525 
z
M 2500 3300 
L 2500 2325 
L 3800 2325 
L 3800 3300 
L 2500 3300 
z
M 2500 2175 
L 2500 1125 
L 3800 1125 
L 3800 2175 
L 2500 2175 
z
M 1275 5200 
Q 1850 4825 1950 4675 
Q 2050 4525 2050 4425 
Q 2050 4275 1950 4137 
Q 1850 4000 1825 4000 
Q 1750 4000 1675 4275 
Q 1550 4650 1200 5125 
L 1275 5200 
z
M 1125 425 
Q 1125 25 1150 -375 
L 750 -525 
Q 775 -150 775 1950 
Q 775 4050 750 4425 
L 1350 4125 
L 1125 3975 
L 1125 425 
z
M 4225 125 
Q 5025 0 5125 37 
Q 5225 75 5225 250 
L 5225 4450 
L 3225 4450 
Q 2900 4450 2625 4375 
L 2400 4600 
L 5175 4600 
L 5425 4850 
L 5775 4500 
L 5575 4350 
L 5575 225 
Q 5575 -100 5462 -250 
Q 5350 -400 5000 -550 
Q 4800 -125 4225 25 
L 4225 125 
z
" transform="scale(0.015625)"/>
      </defs>
      <use xlink:href="#SimSun-65f6"/>
      <use xlink:href="#SimSun-95f4" x="100"/>
     </g>
    </g>
   </g>
   <g id="matplotlib.axis_2">
    <g id="ytick_1">
     <g id="line2d_14">
      <defs>
       <path id="ma79930a386" d="M 0 0 
L -3.5 0 
" style="stroke: #000000; stroke-width: 0.8"/>
      </defs>
      <g>
       <use xlink:href="#ma79930a386" x="40.032031" y="238.69655" style="stroke: #000000; stroke-width: 0.8"/>
      </g>
     </g>
     <g id="text_15">
      <!-- 0 -->
      <g transform="translate(28.532031 241.913347) scale(0.09 -0.09)">
       <use xlink:href="#SimSun-30"/>
      </g>
     </g>
    </g>
    <g id="ytick_2">
     <g id="line2d_15">
      <g>
       <use xlink:href="#ma79930a386" x="40.032031" y="207.387177" style="stroke: #000000; stroke-width: 0.8"/>
      </g>
     </g>
     <g id="text_16">
      <!-- 20 -->
      <g transform="translate(24.032031 210.603974) scale(0.09 -0.09)">
       <use xlink:href="#SimSun-32"/>
       <use xlink:href="#SimSun-30" x="50"/>
      </g>
     </g>
    </g>
    <g id="ytick_3">
     <g id="line2d_16">
      <g>
       <use xlink:href="#ma79930a386" x="40.032031" y="176.077805" style="stroke: #000000; stroke-width: 0.8"/>
      </g>
     </g>
     <g id="text_17">
      <!-- 40 -->
      <g transform="translate(24.032031 179.294602) scale(0.09 -0.09)">
       <use xlink:href="#SimSun-34"/>
       <use xlink:href="#SimSun-30" x="50"/>
      </g>
     </g>
    </g>
    <g id="ytick_4">
     <g id="line2d_17">
      <g>
       <use xlink:href="#ma79930a386" x="40.032031" y="144.768432" style="stroke: #000000; stroke-width: 0.8"/>
      </g>
     </g>
     <g id="text_18">
      <!-- 60 -->
      <g transform="translate(24.032031 147.985229) scale(0.09 -0.09)">
       <use xlink:href="#SimSun-36"/>
       <use xlink:href="#SimSun-30" x="50"/>
      </g>
     </g>
    </g>
    <g id="ytick_5">
     <g id="line2d_18">
      <g>
       <use xlink:href="#ma79930a386" x="40.032031" y="113.45906" style="stroke: #000000; stroke-width: 0.8"/>
      </g>
     </g>
     <g id="text_19">
      <!-- 80 -->
      <g transform="translate(24.032031 116.675857) scale(0.09 -0.09)">
       <use xlink:href="#SimSun-38"/>
       <use xlink:href="#SimSun-30" x="50"/>
      </g>
     </g>
    </g>
    <g id="ytick_6">
     <g id="line2d_19">
      <g>
       <use xlink:href="#ma79930a386" x="40.032031" y="82.149687" style="stroke: #000000; stroke-width: 0.8"/>
      </g>
     </g>
     <g id="text_20">
      <!-- 100 -->
      <g transform="translate(19.532031 85.366484) scale(0.09 -0.09)">
       <use xlink:href="#SimSun-31"/>
       <use xlink:href="#SimSun-30" x="50"/>
       <use xlink:href="#SimSun-30" x="100"/>
      </g>
     </g>
    </g>
    <g id="ytick_7">
     <g id="line2d_20">
      <g>
       <use xlink:href="#ma79930a386" x="40.032031" y="50.840315" style="stroke: #000000; stroke-width: 0.8"/>
      </g>
     </g>
     <g id="text_21">
      <!-- 120 -->
      <g transform="translate(19.532031 54.057112) scale(0.09 -0.09)">
       <use xlink:href="#SimSun-31"/>
       <use xlink:href="#SimSun-32" x="50"/>
       <use xlink:href="#SimSun-30" x="100"/>
      </g>
     </g>
    </g>
    <g id="ytick_8">
     <g id="line2d_21">
      <g>
       <use xlink:href="#ma79930a386" x="40.032031" y="19.530942" style="stroke: #000000; stroke-width: 0.8"/>
      </g>
     </g>
     <g id="text_22">
      <!-- 140 -->
      <g transform="translate(19.532031 22.747739) scale(0.09 -0.09)">
       <use xlink:href="#SimSun-31"/>
       <use xlink:href="#SimSun-34" x="50"/>
       <use xlink:href="#SimSun-30" x="100"/>
      </g>
     </g>
    </g>
    <g id="text_23">
     <!-- 卫星分组平均负载指数标准差 -->
     <g transform="translate(14.371875 183.204) rotate(-90) scale(0.09 -0.09)">
      <defs>
       <path id="SimSun-536b" d="M 5275 4425 
Q 5275 3425 5262 2987 
Q 5250 2550 5212 2350 
Q 5175 2150 5037 2000 
Q 4900 1850 4550 1725 
Q 4550 2025 3775 2250 
L 3775 2375 
Q 4400 2300 4575 2300 
Q 4750 2300 4825 2387 
Q 4900 2475 4912 2975 
Q 4925 3475 4925 4500 
L 3150 4500 
L 3150 200 
L 5100 200 
L 5525 625 
L 6100 50 
L 1125 50 
Q 800 50 525 -25 
L 300 200 
L 2800 200 
L 2800 4500 
L 1775 4500 
Q 1450 4500 1175 4425 
L 950 4650 
L 4850 4650 
L 5050 4925 
L 5475 4600 
L 5275 4425 
z
" transform="scale(0.015625)"/>
       <path id="SimSun-661f" d="M 3600 2600 
L 3375 2425 
L 3375 2000 
L 4650 2000 
L 5025 2375 
L 5550 1850 
L 3375 1850 
L 3375 975 
L 4350 975 
L 4700 1325 
L 5200 825 
L 3375 825 
L 3375 -125 
L 5075 -125 
L 5475 275 
L 6025 -275 
L 1150 -275 
Q 825 -275 550 -350 
L 325 -125 
L 3025 -125 
L 3025 825 
L 1750 825 
L 1525 775 
L 1325 975 
L 3025 975 
L 3025 1850 
L 1600 1850 
Q 1175 1150 550 650 
L 475 700 
Q 975 1300 1225 1837 
Q 1475 2375 1550 2725 
L 2050 2400 
Q 1875 2350 1675 2000 
L 3025 2000 
Q 3025 2500 3000 2875 
L 3600 2600 
z
M 1750 3875 
L 1750 3150 
L 4675 3150 
L 4675 3875 
L 1750 3875 
z
M 1375 5125 
L 1775 4875 
L 4650 4875 
L 4875 5125 
L 5250 4800 
L 5025 4625 
Q 5025 3450 5050 2875 
L 4675 2700 
L 4675 3000 
L 1750 3000 
L 1750 2875 
L 1375 2725 
Q 1400 3175 1400 3900 
Q 1400 4625 1375 5125 
z
M 1750 4725 
L 1750 4025 
L 4675 4025 
L 4675 4725 
L 1750 4725 
z
" transform="scale(0.015625)"/>
       <path id="SimSun-5206" d="M 2350 5050 
L 2850 4675 
L 2625 4550 
Q 2200 3750 1687 3125 
Q 1175 2500 375 2025 
L 325 2100 
Q 975 2625 1475 3337 
Q 1975 4050 2350 5050 
z
M 4100 4975 
L 3900 4850 
Q 4175 3850 4800 3300 
Q 5425 2750 6125 2625 
L 6125 2550 
Q 5750 2500 5600 2225 
Q 4775 2675 4287 3425 
Q 3800 4175 3625 5175 
L 4100 4975 
z
M 1375 2625 
L 4225 2625 
L 4475 2875 
L 4825 2525 
L 4625 2375 
Q 4575 400 4375 -12 
Q 4175 -425 3675 -600 
Q 3600 -200 2975 -25 
L 2975 75 
Q 3600 -25 3787 -12 
Q 3975 0 4075 275 
Q 4175 550 4275 2475 
L 2975 2475 
Q 2825 1400 2375 662 
Q 1925 -75 650 -625 
L 600 -525 
Q 1725 50 2112 837 
Q 2500 1625 2575 2475 
L 1800 2475 
L 1575 2425 
L 1375 2625 
z
" transform="scale(0.015625)"/>
       <path id="SimSun-7ec4" d="M 1000 1525 
Q 1950 1675 2400 1775 
L 2425 1675 
Q 2100 1575 1537 1387 
Q 975 1200 750 1025 
L 475 1475 
Q 725 1550 987 1875 
Q 1250 2200 1750 3000 
Q 1375 2925 1087 2812 
Q 800 2700 625 2600 
L 400 3025 
Q 650 3075 1025 3912 
Q 1400 4750 1475 5175 
L 1925 4875 
Q 1700 4650 1475 4200 
Q 1225 3750 775 3025 
L 1800 3125 
Q 2050 3600 2200 4075 
L 2625 3775 
Q 2500 3650 2125 3075 
Q 1750 2475 1000 1525 
z
M 325 250 
Q 625 300 1312 475 
Q 2000 650 2525 825 
L 2575 700 
Q 2225 575 1525 262 
Q 825 -50 625 -225 
L 325 250 
z
M 3250 4550 
L 3250 3175 
L 4850 3175 
L 4850 4550 
L 3250 4550 
z
M 3250 3025 
L 3250 1625 
L 4850 1625 
L 4850 3025 
L 3250 3025 
z
M 3250 1475 
L 3250 -50 
L 4850 -50 
L 4850 1475 
L 3250 1475 
z
M 2925 3475 
Q 2925 4500 2900 4925 
L 3250 4700 
L 4825 4700 
L 5025 4975 
L 5425 4650 
L 5200 4450 
L 5200 -50 
L 5375 -50 
L 5750 300 
L 6175 -200 
L 2825 -200 
Q 2500 -200 2225 -275 
L 2000 -50 
L 2925 -50 
L 2925 3475 
z
" transform="scale(0.015625)"/>
       <path id="SimSun-5e73" d="M 3375 750 
Q 3375 200 3400 -350 
L 2975 -525 
Q 3000 250 3000 875 
L 3000 2325 
L 1050 2325 
Q 725 2325 450 2250 
L 225 2475 
L 3000 2475 
L 3000 4575 
L 1600 4575 
Q 1275 4575 1000 4500 
L 775 4725 
L 4850 4725 
L 5200 5075 
L 5700 4575 
L 3375 4575 
L 3375 2475 
L 5200 2475 
L 5575 2850 
L 6100 2325 
L 3375 2325 
L 3375 750 
z
M 4750 4325 
L 5275 3925 
Q 5075 3925 4725 3475 
Q 4350 3025 3925 2625 
L 3850 2675 
Q 4500 3550 4750 4325 
z
M 1300 4200 
Q 2025 3675 2150 3487 
Q 2275 3300 2275 3150 
Q 2275 3075 2237 2962 
Q 2200 2850 2062 2750 
Q 1925 2650 1800 3100 
Q 1675 3525 1225 4150 
L 1300 4200 
z
" transform="scale(0.015625)"/>
       <path id="SimSun-5747" d="M 4075 4875 
L 3825 4725 
Q 3650 4325 3475 3925 
L 5400 3925 
L 5625 4175 
L 5975 3850 
L 5775 3675 
Q 5725 800 5612 337 
Q 5500 -125 5275 -312 
Q 5050 -500 4725 -625 
Q 4625 -250 3800 -25 
L 3800 100 
Q 4575 -50 4887 -12 
Q 5200 25 5287 750 
Q 5375 1475 5425 3775 
L 3425 3775 
Q 2975 2950 2500 2450 
L 2400 2500 
Q 2875 3200 3150 3950 
Q 3425 4700 3475 5200 
L 4075 4875 
z
M 3500 3175 
Q 4075 2850 4237 2637 
Q 4400 2425 4400 2300 
Q 4400 2175 4287 2025 
Q 4175 1875 4125 1875 
Q 4050 1875 3975 2125 
Q 3875 2500 3425 3100 
L 3500 3175 
z
M 4975 1750 
Q 4525 1425 3850 1000 
Q 3150 550 2900 225 
L 2525 700 
Q 2875 800 3462 1075 
Q 4050 1350 4925 1850 
L 4975 1750 
z
M 1700 1100 
L 2775 1500 
L 2825 1375 
Q 1875 925 1325 637 
Q 775 350 650 175 
L 275 675 
Q 950 850 1350 1000 
L 1350 3150 
L 750 3150 
L 525 3100 
L 325 3300 
L 1350 3300 
Q 1350 4700 1325 5175 
L 1925 4875 
L 1700 4675 
L 1700 3300 
L 1975 3300 
L 2250 3575 
L 2650 3150 
L 1700 3150 
L 1700 1100 
z
" transform="scale(0.015625)"/>
       <path id="SimSun-8d1f" d="M 1725 675 
Q 1750 1375 1750 2112 
Q 1750 2850 1725 3500 
Q 1275 3050 550 2600 
L 500 2675 
Q 1300 3300 1812 4050 
Q 2325 4800 2500 5250 
L 3000 4900 
L 2750 4800 
L 2525 4500 
L 3975 4500 
L 4225 4775 
L 4650 4350 
Q 4425 4300 4225 4100 
Q 4025 3900 3475 3300 
L 4700 3300 
L 4950 3550 
L 5300 3200 
L 5075 3050 
Q 5075 1525 5100 1075 
L 4725 900 
L 4725 3150 
L 2100 3150 
L 2100 850 
L 1725 675 
z
M 3325 3300 
L 4000 4350 
L 2475 4350 
Q 2075 3875 1700 3475 
L 2075 3300 
L 3325 3300 
z
M 3575 2225 
Q 3525 700 2762 175 
Q 2000 -350 525 -650 
L 525 -550 
Q 2125 -75 2600 425 
Q 3075 925 3137 1600 
Q 3200 2275 3200 2725 
L 3775 2425 
L 3575 2225 
z
M 3675 675 
L 3700 775 
Q 4450 600 4937 437 
Q 5425 275 5587 87 
Q 5750 -100 5750 -225 
Q 5750 -275 5712 -375 
Q 5675 -475 5625 -475 
Q 5525 -475 5200 -175 
Q 4775 250 3675 675 
z
" transform="scale(0.015625)"/>
       <path id="SimSun-8f7d" d="M 1850 5200 
L 2375 5000 
L 2200 4825 
L 2200 4325 
L 2675 4325 
L 2975 4600 
L 3400 4175 
L 2200 4175 
L 2200 3525 
L 3700 3525 
Q 3675 4525 3650 5200 
L 4200 4950 
L 4000 4775 
Q 4000 3950 4025 3525 
L 5250 3525 
L 5625 3850 
L 6100 3375 
L 4050 3375 
Q 4125 2300 4425 1400 
Q 4925 2200 5175 3075 
L 5650 2750 
L 5450 2575 
Q 5075 1775 4575 1050 
Q 4950 350 5650 -50 
L 5875 1050 
L 5975 1025 
Q 5925 350 5950 25 
Q 5975 -300 6075 -500 
Q 6125 -625 6025 -625 
Q 5975 -625 5775 -562 
Q 5575 -500 5125 -150 
Q 4675 200 4350 775 
Q 3575 -125 2625 -600 
L 2575 -525 
Q 3575 175 4175 1075 
Q 3825 1950 3725 3375 
L 1100 3375 
Q 775 3375 500 3300 
L 275 3525 
L 1875 3525 
L 1875 4175 
L 1525 4175 
Q 1200 4175 925 4100 
L 700 4325 
L 1875 4325 
Q 1875 4800 1850 5200 
z
M 4500 4850 
Q 5000 4650 5212 4512 
Q 5425 4375 5400 4187 
Q 5375 4000 5300 3925 
Q 5225 3850 5200 3850 
Q 5125 3850 5025 4050 
Q 4900 4325 4450 4775 
L 4500 4850 
z
M 500 525 
Q 850 550 1975 725 
L 1975 1400 
L 1150 1400 
L 975 1250 
L 700 1575 
Q 900 1575 1350 2450 
L 1150 2450 
Q 850 2450 575 2375 
L 350 2600 
L 1425 2600 
Q 1625 3025 1700 3300 
L 2150 3025 
L 1975 2950 
Q 1900 2850 1775 2600 
L 2700 2600 
L 3025 2900 
L 3425 2450 
L 1700 2450 
L 1175 1550 
L 1975 1550 
Q 1975 1925 1950 2300 
L 2450 2075 
L 2300 1900 
L 2300 1550 
L 2800 1550 
L 3075 1850 
L 3475 1400 
L 2300 1400 
L 2300 775 
L 3400 925 
L 3425 850 
L 2300 575 
Q 2300 -50 2325 -400 
L 1950 -550 
Q 1975 225 1975 500 
Q 850 275 725 100 
L 500 525 
z
" transform="scale(0.015625)"/>
       <path id="SimSun-6307" d="M 3000 3200 
Q 3000 4875 2975 5175 
L 3575 4900 
L 3350 4700 
L 3350 3800 
Q 3825 3975 4375 4287 
Q 4925 4600 5150 4850 
L 5525 4375 
Q 5325 4375 4825 4175 
Q 4300 3975 3350 3675 
L 3350 3250 
Q 3350 2925 3725 2950 
L 5200 2950 
Q 5400 2975 5450 3175 
Q 5500 3375 5550 4000 
L 5650 4000 
Q 5675 3600 5712 3362 
Q 5750 3125 5975 3050 
Q 5825 2675 5400 2675 
L 3475 2675 
Q 2975 2650 3000 3200 
z
M 5475 1850 
L 5475 225 
Q 5475 25 5500 -375 
L 5125 -525 
L 5125 -50 
L 3400 -50 
L 3400 -400 
L 3025 -575 
Q 3050 100 3050 925 
Q 3050 1750 3025 2300 
L 3400 2075 
L 5075 2075 
L 5250 2325 
L 5675 2025 
L 5475 1850 
z
M 3400 1925 
L 3400 1075 
L 5125 1075 
L 5125 1925 
L 3400 1925 
z
M 3400 925 
L 3400 100 
L 5125 100 
L 5125 925 
L 3400 925 
z
M 1450 3750 
Q 1450 4750 1425 5225 
L 2025 4925 
L 1800 4750 
L 1800 3750 
L 2125 3750 
L 2425 4050 
L 2875 3600 
L 1800 3600 
L 1800 2450 
L 2650 2900 
L 2700 2825 
L 1800 2200 
L 1800 75 
Q 1800 -375 1275 -600 
Q 1275 -300 550 -75 
L 550 25 
Q 1100 -50 1275 -37 
Q 1450 -25 1450 300 
L 1450 2000 
Q 1100 1775 725 1500 
L 650 1350 
L 325 1800 
Q 625 1900 1450 2300 
L 1450 3600 
L 1175 3600 
Q 850 3600 575 3525 
L 350 3750 
L 1450 3750 
z
" transform="scale(0.015625)"/>
       <path id="SimSun-6570" d="M 1875 1525 
Q 1675 1200 1500 900 
Q 1825 825 2275 725 
Q 2500 975 2725 1525 
L 1875 1525 
z
M 850 4900 
Q 1325 4600 1425 4450 
Q 1525 4300 1525 4225 
Q 1525 4100 1437 3975 
Q 1350 3850 1300 3850 
Q 1225 3850 1150 4100 
Q 1050 4450 775 4850 
L 850 4900 
z
M 3000 4975 
L 3450 4675 
Q 3250 4625 3100 4425 
Q 2925 4225 2525 3825 
L 2450 3875 
Q 2925 4625 3000 4975 
z
M 1875 5250 
L 2425 5000 
L 2225 4825 
L 2225 3675 
L 2850 3675 
L 3125 3950 
L 3550 3525 
L 2225 3525 
L 2225 3300 
Q 2800 3175 2937 3062 
Q 3075 2950 3075 2775 
Q 3075 2700 3050 2587 
Q 3025 2475 2975 2475 
Q 2925 2475 2800 2650 
Q 2600 2925 2225 3175 
L 2225 2400 
L 1925 2200 
L 2275 2050 
Q 2150 2000 1950 1675 
L 2725 1675 
L 2900 1900 
L 3275 1575 
L 3050 1450 
Q 2800 875 2600 650 
Q 3000 550 3137 437 
Q 3275 325 3275 150 
Q 3275 -25 3200 -25 
Q 3125 -25 3025 75 
Q 2750 275 2400 425 
Q 1525 -275 325 -500 
L 300 -425 
Q 1450 -50 2100 550 
Q 1600 725 1125 800 
Q 1225 950 1525 1525 
L 1200 1525 
Q 875 1525 600 1450 
L 375 1675 
L 1575 1675 
Q 1675 1925 1775 2275 
L 1900 2225 
L 1900 3250 
Q 1225 2475 350 2050 
L 300 2125 
Q 1225 2775 1700 3525 
L 1250 3525 
Q 925 3525 650 3450 
L 425 3675 
L 1900 3675 
Q 1900 4575 1875 5250 
z
M 3925 3525 
Q 4050 2075 4525 1100 
Q 4925 1950 5025 3525 
L 3925 3525 
z
M 4050 5250 
L 4625 4925 
Q 4425 4850 4325 4625 
Q 4225 4400 3950 3675 
L 5375 3675 
L 5675 3975 
L 6125 3525 
L 5400 3525 
Q 5250 1675 4750 775 
Q 5325 75 6100 -100 
L 6100 -200 
Q 5625 -275 5600 -500 
Q 4950 -50 4525 525 
Q 3700 -275 2550 -650 
L 2500 -575 
Q 3650 -50 4325 800 
Q 3850 1975 3825 3375 
Q 3575 2725 3100 2150 
L 3025 2200 
Q 3625 3200 4050 5250 
z
" transform="scale(0.015625)"/>
       <path id="SimSun-6807" d="M 4775 2225 
Q 5725 1275 5825 1050 
Q 5925 825 5925 700 
Q 5925 525 5825 375 
Q 5725 225 5700 225 
Q 5575 225 5475 650 
Q 5300 1225 4700 2175 
L 4775 2225 
z
M 2750 4600 
L 4975 4600 
L 5275 4900 
L 5725 4450 
L 3175 4450 
L 2950 4400 
L 2750 4600 
z
M 3100 75 
Q 3775 -50 3900 -25 
Q 4025 0 4025 175 
L 4025 2950 
L 2800 2950 
L 2575 2900 
L 2375 3100 
L 5350 3100 
L 5675 3425 
L 6150 2950 
L 4400 2950 
L 4400 -25 
Q 4375 -425 3850 -600 
Q 3850 -300 3100 -50 
L 3100 75 
z
M 3125 2275 
L 3675 1950 
L 3425 1825 
Q 2800 700 2100 25 
L 2025 100 
Q 2725 1025 3125 2275 
z
M 1675 2725 
Q 1675 25 1700 -475 
L 1300 -625 
Q 1325 450 1325 2325 
Q 950 1450 350 700 
L 275 800 
Q 975 1925 1325 3475 
L 700 3475 
L 475 3425 
L 275 3625 
L 1325 3625 
Q 1325 4575 1300 5275 
L 1900 4975 
L 1675 4800 
L 1675 3625 
L 2000 3625 
L 2275 3900 
L 2700 3475 
L 1675 3475 
L 1675 2850 
Q 2150 2600 2312 2425 
Q 2475 2250 2475 2125 
Q 2475 2050 2400 1912 
Q 2325 1775 2275 1775 
Q 2200 1775 2100 2075 
Q 1925 2475 1675 2725 
z
" transform="scale(0.015625)"/>
       <path id="SimSun-51c6" d="M 2575 -600 
Q 2600 300 2600 550 
L 2600 3375 
Q 2200 2725 1675 2200 
L 1600 2250 
Q 2100 2950 2462 3812 
Q 2825 4675 2925 5175 
L 3450 4850 
L 3250 4725 
Q 3025 4275 2875 3950 
L 5175 3950 
L 5525 4300 
L 6025 3800 
L 4450 3800 
L 4450 2775 
L 5000 2775 
L 5325 3100 
L 5800 2625 
L 4450 2625 
L 4450 1450 
L 5100 1450 
L 5425 1775 
L 5900 1300 
L 4450 1300 
L 4450 100 
L 5250 100 
L 5600 450 
L 6100 -50 
L 2950 -50 
L 2950 -425 
L 2575 -600 
z
M 4100 3800 
L 2950 3800 
L 2950 2775 
L 4100 2775 
L 4100 3800 
z
M 2950 2625 
L 2950 1450 
L 4100 1450 
L 4100 2625 
L 2950 2625 
z
M 2950 1300 
L 2950 100 
L 4100 100 
L 4100 1300 
L 2950 1300 
z
M 3875 5150 
L 3950 5200 
Q 4675 4725 4650 4500 
Q 4625 4275 4525 4187 
Q 4425 4100 4375 4100 
Q 4275 4100 4250 4350 
Q 4175 4675 3875 5150 
z
M 500 4875 
Q 1350 4375 1337 4137 
Q 1325 3900 1225 3787 
Q 1125 3675 1075 3675 
Q 1000 3675 925 3925 
Q 825 4275 450 4825 
L 500 4875 
z
M 300 1825 
Q 625 1825 862 1887 
Q 1100 1950 2100 4500 
L 2200 4475 
Q 1750 3150 1500 2450 
Q 1225 1750 1200 1137 
Q 1175 525 1200 175 
Q 1200 -200 1012 -137 
Q 825 -75 750 37 
Q 675 150 675 300 
Q 675 450 700 550 
Q 775 850 825 1100 
Q 875 1350 787 1500 
Q 700 1650 300 1725 
L 300 1825 
z
" transform="scale(0.015625)"/>
       <path id="SimSun-5dee" d="M 1600 5100 
L 1650 5175 
Q 2300 4925 2400 4775 
Q 2500 4625 2500 4525 
Q 2500 4400 2437 4287 
Q 2375 4175 2325 4175 
Q 2250 4175 2175 4375 
Q 2025 4700 1600 5100 
z
M 3200 3925 
Q 3100 3450 3025 3175 
L 4650 3175 
L 4975 3500 
L 5450 3025 
L 3000 3025 
Q 2900 2675 2725 2275 
L 5075 2275 
L 5475 2675 
L 6025 2125 
L 2675 2125 
Q 1900 675 350 -200 
L 325 -100 
Q 1650 825 2325 2125 
L 950 2125 
L 600 2075 
L 400 2275 
L 2375 2275 
Q 2525 2650 2650 3025 
L 1550 3025 
L 1225 2975 
L 1025 3175 
L 2675 3175 
Q 2775 3575 2825 3925 
L 1250 3925 
L 900 3875 
L 700 4075 
L 3750 4075 
Q 4200 4925 4250 5250 
L 4800 4925 
Q 4550 4900 3900 4075 
L 5050 4075 
L 5425 4450 
L 5950 3925 
L 3200 3925 
z
M 2150 1275 
L 4650 1275 
L 4950 1575 
L 5400 1125 
L 3850 1125 
L 3850 -175 
L 5200 -175 
L 5550 175 
L 6050 -325 
L 2050 -325 
Q 1725 -325 1450 -400 
L 1225 -175 
L 3500 -175 
L 3500 1125 
L 2625 1125 
L 2350 1075 
L 2150 1275 
z
" transform="scale(0.015625)"/>
      </defs>
      <use xlink:href="#SimSun-536b"/>
      <use xlink:href="#SimSun-661f" x="100"/>
      <use xlink:href="#SimSun-5206" x="200"/>
      <use xlink:href="#SimSun-7ec4" x="300"/>
      <use xlink:href="#SimSun-5e73" x="400"/>
      <use xlink:href="#SimSun-5747" x="500"/>
      <use xlink:href="#SimSun-8d1f" x="600"/>
      <use xlink:href="#SimSun-8f7d" x="700"/>
      <use xlink:href="#SimSun-6307" x="800"/>
      <use xlink:href="#SimSun-6570" x="900"/>
      <use xlink:href="#SimSun-6807" x="1000"/>
      <use xlink:href="#SimSun-51c6" x="1100"/>
      <use xlink:href="#SimSun-5dee" x="1200"/>
     </g>
    </g>
   </g>
   <g id="line2d_22">
    <path d="M 56.264759 141.780387 
L 59.975096 215.690247 
L 63.685434 222.142852 
L 64.613018 222.563005 
L 65.540603 222.622621 
L 66.468187 222.195536 
L 67.395772 222.195536 
L 68.323356 221.708835 
L 69.25094 221.082141 
L 72.961278 214.915337 
L 74.816447 182.16545 
L 76.671616 152.331131 
L 80.381953 76.049738 
L 81.309538 75.835235 
L 82.237122 76.036511 
L 85.94746 133.673695 
L 87.802629 170.690924 
L 88.730213 170.690924 
L 89.657797 167.705509 
L 91.512966 124.301673 
L 95.223304 51.162499 
L 97.078473 51.326996 
L 98.006057 69.917859 
L 99.861226 114.465737 
L 100.78881 137.437336 
L 104.499148 216.75514 
L 106.354317 220.070988 
L 108.209486 223.335413 
L 109.13707 223.715055 
L 110.064655 223.860617 
L 111.919823 223.390677 
L 113.774992 222.629614 
L 114.702577 221.199677 
L 116.557746 218.716635 
L 117.48533 217.42945 
L 121.195668 165.020728 
L 124.906005 94.898184 
L 125.83359 94.515438 
L 126.761174 94.257704 
L 130.471512 140.793802 
L 132.326681 173.693871 
L 134.181849 174.419437 
L 136.964603 126.426361 
L 139.747356 86.498828 
L 140.67494 87.057502 
L 141.602525 87.420021 
L 144.385278 138.900881 
L 145.312862 158.714886 
L 149.0232 218.181576 
L 152.733538 223.963234 
L 154.588707 224.630233 
L 156.443875 224.133691 
L 157.37146 223.55192 
L 158.299044 223.181256 
L 162.009382 216.249157 
L 165.71972 177.16245 
L 168.502473 129.676393 
L 169.430057 114.680788 
L 171.285226 114.342876 
L 174.995564 145.745533 
L 176.850733 175.505123 
L 178.705901 173.285509 
L 180.56107 141.412598 
L 184.271408 108.763039 
L 186.126577 109.244769 
L 188.90933 158.392343 
L 189.836914 175.923576 
L 193.547252 216.980841 
L 196.330005 222.693367 
L 197.25759 225.159552 
L 199.112759 226.416792 
L 200.967927 226.416792 
L 202.823096 225.373689 
L 206.533434 215.918151 
L 210.243772 169.873081 
L 213.026525 107.92617 
L 213.954109 88.544379 
L 214.881694 87.976732 
L 215.809278 87.229931 
L 219.519616 121.959096 
L 221.374784 159.587383 
L 223.229953 151.965733 
L 225.085122 106.89495 
L 228.79546 66.172376 
L 230.650629 67.705518 
L 233.433382 139.785008 
L 234.360966 165.081419 
L 238.071304 217.449184 
L 238.998888 219.74726 
L 241.781642 227.261486 
L 243.63681 228.890805 
L 245.491979 228.792054 
L 246.419564 228.794523 
L 247.347148 227.990101 
L 248.274733 227.495676 
L 251.98507 215.610407 
L 253.840239 190.673961 
L 255.695408 166.652407 
L 258.478161 98.656004 
L 259.405746 77.468058 
L 261.260914 75.730286 
L 264.971252 112.144626 
L 266.826421 153.627767 
L 268.68159 153.715518 
L 269.609174 133.440334 
L 270.536759 118.003547 
L 273.319512 101.407505 
L 274.247096 96.290277 
L 276.102265 98.34287 
L 279.812603 184.386804 
L 283.52294 219.875758 
L 287.233278 230.312481 
L 289.088447 231.525818 
L 290.016031 231.089193 
L 290.943616 231.089193 
L 292.798784 229.059681 
L 296.509122 216.154648 
L 297.436707 202.646827 
L 299.291875 182.502505 
L 300.21946 172.940192 
L 302.074629 142.918657 
L 303.929797 117.244392 
L 304.857382 117.156128 
L 305.784966 116.42087 
L 306.712551 126.1337 
L 309.495304 146.45555 
L 311.350473 171.953287 
L 313.205642 171.953287 
L 315.06081 147.799031 
L 318.771148 130.102597 
L 320.626317 127.063223 
L 322.481486 149.521585 
L 324.336655 178.309468 
L 327.119408 199.830653 
L 328.046992 208.064168 
L 331.75733 227.401922 
L 333.612499 230.015122 
L 334.540083 228.549946 
L 335.467668 227.654745 
L 337.322836 222.115009 
L 341.033174 192.160611 
L 342.888343 161.087462 
L 344.743512 135.557867 
L 346.598681 102.324684 
L 347.526265 90.41008 
L 348.453849 84.046519 
L 350.309018 93.576815 
L 354.019356 143.66181 
L 355.874525 177.205617 
L 356.802109 180.196645 
L 357.729694 177.636631 
L 360.512447 138.121659 
L 363.2952 101.128466 
L 365.150369 91.854738 
L 367.005538 110.142761 
L 369.788291 150.193848 
L 370.715875 162.812761 
L 372.571044 193.426125 
L 376.281382 222.494717 
L 378.136551 227.922526 
L 379.064135 227.922526 
L 379.99172 227.151464 
L 380.919304 223.666497 
L 380.919304 223.666497 
" clip-path="url(#p0e38f19a84)" style="fill: none; stroke: #1f77b4; stroke-linecap: square"/>
   </g>
   <g id="line2d_23">
    <path d="M 40.032031 165.056477 
L 397.152031 165.056477 
" clip-path="url(#p0e38f19a84)" style="fill: none; stroke-dasharray: 3.7,1.6; stroke-dashoffset: 0; stroke: #1f77b4"/>
   </g>
   <g id="line2d_24">
    <path d="M 56.264759 106.001096 
L 58.119927 93.809508 
L 59.047512 83.575818 
L 59.975096 77.241274 
L 60.902681 60.535999 
L 61.830265 54.362779 
L 62.757849 46.899553 
L 63.685434 44.376017 
L 64.613018 46.396854 
L 65.540603 45.106512 
L 67.395772 52.015638 
L 68.323356 57.97944 
L 70.178525 74.596621 
L 71.106109 77.034017 
L 72.033694 86.965213 
L 73.888862 97.15634 
L 74.816447 106.996413 
L 75.744031 106.751461 
L 77.5992 104.754594 
L 78.526784 100.109953 
L 79.454369 94.27073 
L 80.381953 95.546444 
L 81.309538 95.658773 
L 82.237122 92.991797 
L 83.164707 92.346918 
L 84.092291 92.380205 
L 85.019875 97.460145 
L 85.94746 103.161311 
L 86.875044 110.622035 
L 87.802629 115.443265 
L 88.730213 121.320955 
L 89.657797 126.088821 
L 90.585382 125.827605 
L 91.512966 128.573999 
L 92.440551 132.634338 
L 95.223304 149.297267 
L 96.150888 159.187576 
L 99.861226 181.533812 
L 100.78881 181.470461 
L 101.716395 177.698316 
L 102.643979 172.134938 
L 103.571564 163.045244 
L 105.426733 137.932692 
L 106.354317 129.466195 
L 107.281901 118.965749 
L 109.13707 102.333298 
L 110.064655 97.478337 
L 110.992239 97.739011 
L 111.919823 96.248339 
L 112.847408 94.53027 
L 113.774992 99.941446 
L 114.702577 101.294397 
L 115.630161 102.045178 
L 116.557746 105.617019 
L 117.48533 106.984454 
L 118.412914 108.755067 
L 119.340499 111.395613 
L 120.268083 109.919097 
L 121.195668 110.353323 
L 122.123252 114.500347 
L 123.050836 117.921846 
L 123.978421 119.668627 
L 124.906005 122.317305 
L 126.761174 137.235529 
L 127.688759 143.607561 
L 129.543927 159.430741 
L 130.471512 165.771461 
L 131.399096 168.858079 
L 132.326681 168.93932 
L 133.254265 168.125339 
L 134.181849 169.240622 
L 136.037018 160.963317 
L 138.819772 161.833965 
L 139.747356 163.045973 
L 141.602525 174.879362 
L 142.530109 181.786267 
L 144.385278 191.17395 
L 145.312862 194.664496 
L 146.240447 191.116718 
L 148.095616 181.604623 
L 149.0232 174.70527 
L 150.878369 162.449545 
L 151.805953 155.642707 
L 153.661122 146.739962 
L 154.588707 140.949154 
L 156.443875 141.306387 
L 157.37146 141.640931 
L 158.299044 143.902311 
L 159.226629 139.984403 
L 161.081797 120.091758 
L 162.009382 116.3077 
L 162.936966 105.432108 
L 163.864551 96.99619 
L 164.792135 87.484149 
L 165.71972 72.169813 
L 167.574888 51.548037 
L 168.502473 45.624386 
L 169.430057 46.277081 
L 170.357642 49.019982 
L 171.285226 43.800847 
L 172.21281 44.363392 
L 173.140395 46.087793 
L 174.067979 46.382992 
L 174.995564 51.150519 
L 176.850733 67.879776 
L 177.778317 67.320241 
L 180.56107 89.729885 
L 181.488655 101.681581 
L 183.343823 130.170508 
L 184.271408 145.785866 
L 186.126577 163.947859 
L 187.054161 176.451799 
L 187.981746 181.27613 
L 188.90933 184.898452 
L 189.836914 186.34934 
L 190.764499 175.478222 
L 192.619668 136.067903 
L 193.547252 111.96411 
L 195.402421 79.745852 
L 196.330005 58.901468 
L 198.185174 36.606441 
L 199.112759 27.112967 
L 200.040343 27.235748 
L 200.967927 32.52004 
L 201.895512 36.93306 
L 202.823096 40.673801 
L 204.678265 29.341819 
L 205.605849 32.968866 
L 206.533434 31.654028 
L 207.461018 29.555188 
L 208.388603 24.108342 
L 210.243772 22.216808 
L 211.171356 17.882182 
L 213.026525 28.624625 
L 213.954109 34.140596 
L 214.881694 40.363164 
L 215.809278 41.883349 
L 216.736862 43.97492 
L 217.664447 58.620822 
L 219.519616 80.612799 
L 220.4472 94.910113 
L 224.157538 138.912532 
L 226.012707 165.01447 
L 226.940291 170.77339 
L 227.867875 175.166537 
L 228.79546 180.115342 
L 229.723044 187.518661 
L 230.650629 193.955727 
L 232.505797 203.729895 
L 233.433382 205.845999 
L 234.360966 206.757086 
L 235.288551 206.215465 
L 236.216135 204.701599 
L 237.14372 202.864167 
L 238.071304 188.348273 
L 238.998888 184.849291 
L 239.926473 180.519382 
L 240.854057 177.885083 
L 241.781642 176.208365 
L 242.709226 172.207118 
L 244.564395 166.28373 
L 245.491979 164.513103 
L 246.419564 161.940603 
L 247.347148 171.811188 
L 248.274733 170.770842 
L 249.202317 168.133916 
L 250.129901 165.907318 
L 251.057486 164.077975 
L 251.98507 164.477398 
L 252.912655 164.381589 
L 253.840239 165.567569 
L 254.767823 165.62154 
L 255.695408 166.38787 
L 256.622992 167.721685 
L 257.550577 167.704349 
L 258.478161 169.136378 
L 260.33333 173.243731 
L 261.260914 175.29118 
L 262.188499 177.660939 
L 264.971252 186.775327 
L 267.754005 199.188319 
L 268.68159 202.978927 
L 269.609174 205.180298 
L 270.536759 204.915904 
L 271.464343 206.722095 
L 272.391927 207.008692 
L 273.319512 207.602174 
L 274.247096 207.986582 
L 275.174681 208.886322 
L 276.102265 207.86894 
L 277.029849 207.165959 
L 277.957434 206.057619 
L 278.885018 202.289396 
L 279.812603 200.659754 
L 280.740187 197.452456 
L 281.667772 193.12504 
L 283.52294 186.623399 
L 284.450525 180.179346 
L 286.305694 172.712599 
L 287.233278 168.63226 
L 288.160862 168.179941 
L 289.088447 168.14966 
L 290.016031 169.192392 
L 290.943616 171.564352 
L 291.8712 171.575469 
L 292.798784 172.643597 
L 293.726369 174.48553 
L 294.653953 176.816913 
L 295.581538 179.779123 
L 296.509122 183.444708 
L 297.436707 186.005879 
L 298.364291 186.600588 
L 299.291875 185.856497 
L 300.21946 184.788572 
L 301.147044 184.972067 
L 302.074629 184.237671 
L 303.002213 183.85023 
L 303.929797 182.258756 
L 305.784966 177.634438 
L 306.712551 175.873852 
L 307.640135 175.17339 
L 308.56772 175.942148 
L 309.495304 176.871316 
L 310.422888 176.501051 
L 311.350473 177.325989 
L 312.278057 178.327937 
L 313.205642 177.98095 
L 314.133226 179.34597 
L 315.988395 180.69346 
L 316.915979 180.920229 
L 318.771148 178.56821 
L 319.698733 177.697666 
L 321.553901 177.884184 
L 322.481486 179.150142 
L 325.264239 184.594659 
L 326.191823 183.964 
L 327.119408 184.740472 
L 328.046992 184.950919 
L 328.974577 185.442846 
L 329.902161 184.745572 
L 330.829746 183.56441 
L 331.75733 182.987492 
L 332.684914 180.571259 
L 334.540083 175.362737 
L 335.467668 174.553851 
L 337.322836 163.216618 
L 338.250421 158.148295 
L 339.178005 146.323521 
L 341.033174 115.316934 
L 342.888343 80.754325 
L 343.815927 66.346827 
L 344.743512 54.455946 
L 345.671096 44.958267 
L 346.598681 38.793571 
L 347.526265 33.484834 
L 348.453849 35.023077 
L 350.309018 58.984105 
L 353.091772 96.560707 
L 354.019356 96.620315 
L 354.94694 99.684591 
L 355.874525 99.478616 
L 356.802109 97.151364 
L 357.729694 91.498536 
L 359.584862 74.809559 
L 360.512447 65.229647 
L 362.367616 51.922191 
L 363.2952 55.78919 
L 365.150369 76.207563 
L 366.077953 80.122178 
L 367.005538 86.244418 
L 367.933122 88.371147 
L 368.860707 85.943625 
L 369.788291 88.479066 
L 370.715875 86.199516 
L 371.64346 80.008765 
L 372.571044 75.949487 
L 373.498629 65.582156 
L 374.426213 51.664481 
L 375.353797 47.672859 
L 377.208966 43.105586 
L 378.136551 43.855376 
L 379.064135 43.872021 
L 379.99172 44.085038 
L 380.919304 47.968511 
L 380.919304 47.968511 
" clip-path="url(#p0e38f19a84)" style="fill: none; stroke: #ff7f0e; stroke-linecap: square"/>
   </g>
   <g id="line2d_25">
    <path d="M 40.032031 129.048547 
L 397.152031 129.048547 
" clip-path="url(#p0e38f19a84)" style="fill: none; stroke-dasharray: 3.7,1.6; stroke-dashoffset: 0; stroke: #ff7f0e"/>
   </g>
   <g id="line2d_26">
    <path d="M 56.264759 129.624938 
L 58.119927 130.082113 
L 59.047512 130.104626 
L 59.975096 130.722999 
L 60.902681 131.067798 
L 61.830265 131.732475 
L 62.757849 131.733036 
L 63.685434 132.417288 
L 64.613018 132.949491 
L 65.540603 133.341408 
L 66.468187 134.270996 
L 67.395772 134.823122 
L 68.323356 135.76073 
L 70.178525 137.102009 
L 71.106109 138.068167 
L 72.033694 139.561185 
L 74.816447 141.828431 
L 75.744031 142.578448 
L 77.5992 142.643237 
L 79.454369 142.391875 
L 80.381953 142.656649 
L 81.309538 141.876497 
L 83.164707 139.876487 
L 84.092291 138.643184 
L 85.019875 138.086401 
L 86.875044 136.115825 
L 87.802629 134.821061 
L 88.730213 133.326872 
L 89.657797 130.7944 
L 91.512966 128.554417 
L 92.440551 127.474646 
L 93.368135 126.650104 
L 94.29572 124.46365 
L 95.223304 124.121556 
L 96.150888 123.193883 
L 97.078473 122.96254 
L 98.006057 122.510611 
L 99.861226 122.334913 
L 100.78881 122.335774 
L 101.716395 122.977618 
L 102.643979 123.206564 
L 103.571564 124.523096 
L 104.499148 124.053118 
L 106.354317 126.369294 
L 107.281901 127.737577 
L 108.209486 130.161715 
L 109.13707 131.214482 
L 110.064655 132.494866 
L 110.992239 133.558501 
L 111.919823 135.051083 
L 112.847408 136.273659 
L 113.774992 137.883405 
L 115.630161 138.908535 
L 116.557746 140.394702 
L 117.48533 140.662052 
L 118.412914 140.69105 
L 119.340499 140.96062 
L 120.268083 140.975769 
L 121.195668 141.764322 
L 123.050836 141.930124 
L 123.978421 141.526003 
L 124.906005 140.565549 
L 125.83359 139.080789 
L 128.616343 136.989165 
L 131.399096 132.792089 
L 132.326681 132.708155 
L 134.181849 131.452488 
L 135.109434 131.814772 
L 136.037018 131.113638 
L 136.964603 131.858846 
L 137.892187 131.633375 
L 138.819772 132.862338 
L 139.747356 132.938339 
L 141.602525 133.403829 
L 142.530109 133.520208 
L 143.457694 134.636902 
L 144.385278 134.487017 
L 145.312862 135.141104 
L 146.240447 134.136393 
L 147.168031 134.752182 
L 149.0232 135.494363 
L 149.950784 136.491295 
L 150.878369 136.675455 
L 151.805953 138.08833 
L 153.661122 138.641838 
L 154.588707 139.338038 
L 155.516291 140.813759 
L 156.443875 141.657735 
L 157.37146 141.745024 
L 158.299044 143.038207 
L 159.226629 143.628158 
L 160.154213 143.930982 
L 161.081797 142.341733 
L 162.009382 142.323666 
L 162.936966 142.962597 
L 163.864551 143.130476 
L 164.792135 142.600508 
L 165.71972 141.185801 
L 166.647304 140.102223 
L 167.574888 138.561768 
L 168.502473 137.835246 
L 169.430057 136.580978 
L 170.357642 136.967331 
L 172.21281 135.016666 
L 173.140395 132.915892 
L 174.067979 132.461388 
L 175.923148 131.905079 
L 176.850733 131.999178 
L 177.778317 130.842903 
L 178.705901 131.40703 
L 180.56107 130.900839 
L 181.488655 130.458958 
L 182.416239 130.98665 
L 183.343823 131.251526 
L 184.271408 131.072817 
L 185.198992 131.391645 
L 186.126577 130.744365 
L 187.054161 130.49837 
L 187.981746 128.429777 
L 188.90933 127.318974 
L 189.836914 127.020316 
L 190.764499 126.154513 
L 191.692083 126.051099 
L 192.619668 125.043276 
L 193.547252 125.362536 
L 194.474836 124.660619 
L 195.402421 124.171434 
L 196.330005 124.718856 
L 199.112759 127.956308 
L 200.040343 129.577135 
L 200.967927 130.358657 
L 201.895512 130.505734 
L 202.823096 129.055046 
L 203.750681 129.008495 
L 204.678265 129.993652 
L 205.605849 130.139364 
L 206.533434 129.695003 
L 207.461018 129.076628 
L 209.316187 126.009618 
L 210.243772 125.350578 
L 211.171356 124.47416 
L 212.09894 125.070561 
L 213.954109 123.172408 
L 214.881694 120.078959 
L 216.736862 117.885607 
L 217.664447 116.503049 
L 218.592031 115.675247 
L 219.519616 113.649547 
L 220.4472 113.401339 
L 221.374784 112.425697 
L 222.302369 111.820314 
L 223.229953 110.354262 
L 224.157538 110.692525 
L 225.085122 110.633495 
L 226.012707 109.987498 
L 226.940291 110.702726 
L 227.867875 110.268229 
L 228.79546 110.834036 
L 229.723044 110.01921 
L 230.650629 109.46381 
L 231.578213 109.980134 
L 232.505797 110.177883 
L 233.433382 111.222118 
L 234.360966 111.354433 
L 235.288551 112.728838 
L 236.216135 112.851003 
L 237.14372 113.355838 
L 238.071304 114.06326 
L 238.998888 115.299753 
L 239.926473 116.834507 
L 240.854057 117.555488 
L 242.709226 120.572512 
L 243.63681 121.557187 
L 244.564395 120.722039 
L 245.491979 120.89032 
L 246.419564 122.136221 
L 247.347148 123.097971 
L 248.274733 122.988264 
L 249.202317 122.457174 
L 250.129901 121.780645 
L 251.057486 120.307989 
L 251.98507 119.97289 
L 252.912655 119.362614 
L 253.840239 119.962399 
L 254.767823 119.445156 
L 255.695408 118.491699 
L 256.622992 116.27299 
L 258.478161 116.557756 
L 259.405746 116.429989 
L 260.33333 116.990178 
L 261.260914 115.74382 
L 262.188499 116.092925 
L 263.116083 116.15951 
L 264.043668 116.673104 
L 264.971252 116.617989 
L 265.898836 117.016173 
L 266.826421 116.821728 
L 267.754005 116.253391 
L 268.68159 116.768333 
L 269.609174 116.292795 
L 270.536759 118.238349 
L 271.464343 119.482276 
L 272.391927 120.989769 
L 276.102265 130.022876 
L 277.029849 133.299988 
L 277.957434 135.602312 
L 278.885018 138.226163 
L 279.812603 139.202581 
L 281.667772 141.800099 
L 282.595356 142.680649 
L 284.450525 144.913836 
L 285.378109 145.15447 
L 286.305694 143.807838 
L 287.233278 143.033193 
L 289.088447 143.241285 
L 290.943616 140.955363 
L 291.8712 139.437574 
L 292.798784 137.451095 
L 293.726369 136.695727 
L 294.653953 135.604212 
L 295.581538 135.827644 
L 296.509122 135.102823 
L 297.436707 134.175237 
L 298.364291 133.576079 
L 301.147044 137.33977 
L 302.074629 139.33263 
L 303.002213 139.756219 
L 303.929797 141.55218 
L 304.857382 143.072255 
L 305.784966 144.920122 
L 306.712551 146.234116 
L 307.640135 146.665756 
L 308.56772 146.789523 
L 309.495304 146.505606 
L 310.422888 147.001787 
L 311.350473 146.57003 
L 312.278057 147.084674 
L 314.133226 146.586585 
L 315.06081 146.944382 
L 315.988395 147.155134 
L 316.915979 147.726516 
L 317.843564 147.923361 
L 318.771148 148.929487 
L 319.698733 149.276241 
L 320.626317 149.842649 
L 321.553901 150.223481 
L 322.481486 150.890721 
L 323.40907 151.919003 
L 324.336655 152.227709 
L 326.191823 154.33857 
L 327.119408 154.749746 
L 328.046992 153.895626 
L 328.974577 153.506151 
L 329.902161 154.153896 
L 330.829746 154.470331 
L 331.75733 154.129897 
L 332.684914 152.994896 
L 333.612499 152.584749 
L 334.540083 151.37002 
L 335.467668 149.604123 
L 336.395252 148.254006 
L 337.322836 147.924626 
L 338.250421 146.805971 
L 339.178005 145.332667 
L 340.10559 142.840771 
L 341.033174 141.92628 
L 341.960759 141.510229 
L 342.888343 140.509903 
L 344.743512 139.520919 
L 345.671096 139.49737 
L 346.598681 139.107302 
L 347.526265 139.14718 
L 348.453849 138.955967 
L 349.381434 139.791651 
L 350.309018 140.391782 
L 351.236603 140.259026 
L 352.164187 140.959343 
L 353.091772 141.088263 
L 354.019356 140.65486 
L 355.874525 138.511704 
L 356.802109 137.897306 
L 357.729694 136.769988 
L 358.657278 136.55182 
L 359.584862 135.383111 
L 360.512447 135.23967 
L 362.367616 133.246586 
L 364.222784 134.395257 
L 365.150369 135.34986 
L 366.077953 135.827359 
L 367.005538 137.280034 
L 367.933122 137.628708 
L 368.860707 137.620416 
L 369.788291 136.593631 
L 370.715875 136.139844 
L 371.64346 136.807256 
L 372.571044 136.956755 
L 373.498629 136.724886 
L 374.426213 135.502177 
L 375.353797 134.783924 
L 377.208966 131.456786 
L 378.136551 130.52144 
L 379.064135 130.219826 
L 379.99172 129.022632 
L 380.919304 127.411758 
L 380.919304 127.411758 
" clip-path="url(#p0e38f19a84)" style="fill: none; stroke: #2ca02c; stroke-linecap: square"/>
   </g>
   <g id="line2d_27">
    <path d="M 40.032031 132.927203 
L 397.152031 132.927203 
" clip-path="url(#p0e38f19a84)" style="fill: none; stroke-dasharray: 3.7,1.6; stroke-dashoffset: 0; stroke: #2ca02c"/>
   </g>
   <g id="line2d_28">
    <path d="M 56.264759 197.595324 
L 57.192343 197.876414 
L 58.119927 198.324309 
L 59.047512 197.865899 
L 59.975096 197.965601 
L 60.902681 197.636799 
L 61.830265 197.443922 
L 62.757849 197.045035 
L 64.613018 198.432512 
L 66.468187 198.344856 
L 67.395772 197.725448 
L 69.25094 198.52302 
L 70.178525 199.27366 
L 71.106109 200.854337 
L 72.033694 201.206329 
L 72.961278 200.778028 
L 73.888862 199.721407 
L 75.744031 200.580026 
L 76.671616 201.508598 
L 77.5992 202.127756 
L 78.526784 202.405041 
L 79.454369 202.337703 
L 80.381953 200.248827 
L 81.309538 199.722781 
L 82.237122 199.335813 
L 83.164707 199.575184 
L 84.092291 199.562921 
L 85.019875 199.118539 
L 85.94746 198.273576 
L 86.875044 197.643406 
L 87.802629 196.860506 
L 88.730213 196.786598 
L 90.585382 198.290741 
L 91.512966 198.480531 
L 92.440551 198.846215 
L 93.368135 198.974348 
L 95.223304 199.67025 
L 96.150888 199.794465 
L 97.078473 199.553638 
L 98.933642 197.687818 
L 99.861226 196.804762 
L 100.78881 196.336807 
L 101.716395 196.069333 
L 102.643979 195.478371 
L 103.571564 195.078711 
L 104.499148 195.048845 
L 105.426733 195.444724 
L 107.281901 196.854026 
L 108.209486 198.886409 
L 109.13707 200.360476 
L 110.064655 201.517496 
L 110.992239 201.890902 
L 111.919823 202.620442 
L 112.847408 203.635416 
L 113.774992 204.230746 
L 114.702577 204.374513 
L 115.630161 204.056514 
L 116.557746 204.978694 
L 117.48533 204.818884 
L 120.268083 205.124311 
L 121.195668 205.558551 
L 122.123252 204.743425 
L 123.050836 204.123916 
L 123.978421 204.091774 
L 124.906005 204.577496 
L 125.83359 204.671391 
L 126.761174 204.649735 
L 127.688759 204.341909 
L 128.616343 203.538731 
L 129.543927 203.118666 
L 130.471512 202.388616 
L 132.326681 203.474503 
L 133.254265 203.393717 
L 134.181849 203.188099 
L 136.037018 202.28977 
L 136.964603 202.438836 
L 137.892187 203.01753 
L 138.819772 203.777993 
L 139.747356 204.260524 
L 141.602525 204.760205 
L 142.530109 204.526589 
L 143.457694 204.432117 
L 145.312862 203.625598 
L 146.240447 202.619417 
L 148.095616 201.933618 
L 149.0232 201.32112 
L 149.950784 201.152079 
L 150.878369 200.691115 
L 151.805953 200.806739 
L 152.733538 201.176155 
L 153.661122 201.904942 
L 154.588707 202.890996 
L 155.516291 204.143879 
L 156.443875 204.599699 
L 157.37146 205.211979 
L 158.299044 206.252089 
L 159.226629 206.48034 
L 160.154213 207.187744 
L 161.081797 207.273464 
L 162.009382 207.082922 
L 162.936966 206.443643 
L 163.864551 206.350289 
L 164.792135 205.809704 
L 165.71972 205.928633 
L 167.574888 205.236107 
L 168.502473 205.595619 
L 169.430057 204.860712 
L 173.140395 203.973419 
L 174.067979 204.748067 
L 176.850733 204.439135 
L 177.778317 203.203417 
L 178.705901 202.989148 
L 180.56107 203.154727 
L 181.488655 203.415917 
L 182.416239 203.02177 
L 183.343823 202.351958 
L 184.271408 202.0825 
L 185.198992 202.058537 
L 186.126577 201.646191 
L 187.054161 202.791915 
L 187.981746 203.100214 
L 188.90933 202.810714 
L 190.764499 200.963603 
L 191.692083 199.563007 
L 192.619668 199.044554 
L 193.547252 198.788373 
L 194.474836 198.904377 
L 195.402421 199.491229 
L 197.25759 199.687652 
L 200.040343 200.886798 
L 200.967927 202.288057 
L 201.895512 202.720149 
L 203.750681 201.695015 
L 204.678265 201.890777 
L 206.533434 201.305255 
L 207.461018 200.329258 
L 208.388603 200.006271 
L 209.316187 199.856267 
L 211.171356 198.685269 
L 212.09894 198.821696 
L 213.026525 198.791641 
L 213.954109 198.340809 
L 214.881694 197.495865 
L 215.809278 197.231234 
L 216.736862 197.453819 
L 218.592031 197.153411 
L 219.519616 197.649125 
L 220.4472 197.713586 
L 221.374784 198.071425 
L 222.302369 197.759138 
L 225.085122 195.888784 
L 226.012707 195.979883 
L 226.940291 196.562214 
L 227.867875 196.952858 
L 228.79546 196.567029 
L 229.723044 196.302721 
L 230.650629 195.688119 
L 231.578213 195.890755 
L 232.505797 195.867324 
L 234.360966 196.114301 
L 235.288551 195.874015 
L 236.216135 195.363464 
L 237.14372 195.245053 
L 238.071304 194.301603 
L 238.998888 194.495202 
L 239.926473 194.556564 
L 242.709226 196.95592 
L 243.63681 196.394221 
L 244.564395 196.091647 
L 245.491979 196.961799 
L 246.419564 198.094129 
L 247.347148 199.652484 
L 248.274733 199.335286 
L 249.202317 199.810175 
L 250.129901 198.734433 
L 251.057486 198.001516 
L 251.98507 198.143478 
L 252.912655 199.68769 
L 253.840239 200.501116 
L 254.767823 200.082417 
L 255.695408 198.603923 
L 256.622992 198.557674 
L 257.550577 199.62005 
L 258.478161 199.336242 
L 259.405746 199.929966 
L 260.33333 200.022854 
L 261.260914 199.751526 
L 262.188499 199.646481 
L 263.116083 199.805641 
L 264.971252 199.94263 
L 265.898836 199.733087 
L 267.754005 198.183806 
L 268.68159 197.865075 
L 269.609174 198.09942 
L 270.536759 198.527579 
L 271.464343 197.967241 
L 272.391927 197.879891 
L 273.319512 198.417239 
L 274.247096 199.533343 
L 275.174681 200.004125 
L 276.102265 201.070329 
L 277.029849 202.98558 
L 277.957434 203.737526 
L 278.885018 203.660373 
L 279.812603 204.316759 
L 280.740187 205.497841 
L 281.667772 206.004531 
L 282.595356 206.095443 
L 283.52294 206.37114 
L 284.450525 206.442398 
L 285.378109 206.152242 
L 286.305694 205.54855 
L 287.233278 205.110705 
L 288.160862 205.496808 
L 289.088447 206.062755 
L 290.016031 205.616475 
L 290.943616 205.635846 
L 291.8712 205.347691 
L 292.798784 204.499128 
L 294.653953 203.985249 
L 295.581538 204.028558 
L 296.509122 204.327079 
L 297.436707 204.789224 
L 298.364291 203.572859 
L 299.291875 203.60985 
L 300.21946 204.087705 
L 302.074629 206.155848 
L 303.002213 206.532339 
L 305.784966 208.522961 
L 306.712551 208.599067 
L 308.56772 209.43861 
L 309.495304 208.940684 
L 310.422888 208.759654 
L 311.350473 208.97274 
L 312.278057 209.873289 
L 315.06081 209.606935 
L 315.988395 209.493749 
L 316.915979 209.910298 
L 317.843564 209.660569 
L 318.771148 210.060363 
L 319.698733 209.605596 
L 321.553901 208.182789 
L 322.481486 208.383548 
L 323.40907 208.470405 
L 324.336655 208.760398 
L 325.264239 208.845871 
L 327.119408 209.579422 
L 328.974577 209.653534 
L 330.829746 210.274806 
L 331.75733 210.239023 
L 332.684914 210.330988 
L 334.540083 210.005659 
L 335.467668 209.288651 
L 337.322836 208.890581 
L 338.250421 208.568079 
L 339.178005 208.526228 
L 340.10559 208.144395 
L 341.033174 207.982383 
L 343.815927 206.054374 
L 344.743512 205.765226 
L 345.671096 205.073556 
L 346.598681 204.987484 
L 347.526265 205.257888 
L 348.453849 205.261005 
L 349.381434 205.529379 
L 350.309018 205.66909 
L 351.236603 205.932745 
L 352.164187 205.808571 
L 353.091772 206.055531 
L 354.019356 205.34631 
L 354.94694 204.82801 
L 355.874525 204.122211 
L 356.802109 203.954061 
L 357.729694 203.597614 
L 358.657278 203.104784 
L 359.584862 202.778695 
L 360.512447 202.869423 
L 361.440031 203.150284 
L 362.367616 202.848799 
L 363.2952 202.691249 
L 364.222784 203.422752 
L 365.150369 203.824466 
L 366.077953 204.007162 
L 367.005538 204.352771 
L 368.860707 203.350783 
L 370.715875 202.838474 
L 371.64346 203.037574 
L 372.571044 203.825436 
L 373.498629 202.926422 
L 374.426213 202.467374 
L 375.353797 201.872374 
L 376.281382 201.517253 
L 377.208966 201.781187 
L 378.136551 201.548435 
L 379.99172 201.95156 
L 380.919304 201.938675 
L 380.919304 201.938675 
" clip-path="url(#p0e38f19a84)" style="fill: none; stroke: #d62728; stroke-linecap: square"/>
   </g>
   <g id="line2d_29">
    <path d="M 40.032031 202.267182 
L 397.152031 202.267182 
" clip-path="url(#p0e38f19a84)" style="fill: none; stroke-dasharray: 3.7,1.6; stroke-dashoffset: 0; stroke: #d62728"/>
   </g>
   <g id="patch_3">
    <path d="M 40.032031 242.208 
L 40.032031 7.2 
" style="fill: none; stroke: #000000; stroke-width: 0.8; stroke-linejoin: miter; stroke-linecap: square"/>
   </g>
   <g id="patch_4">
    <path d="M 397.152031 242.208 
L 397.152031 7.2 
" style="fill: none; stroke: #000000; stroke-width: 0.8; stroke-linejoin: miter; stroke-linecap: square"/>
   </g>
   <g id="patch_5">
    <path d="M 40.032031 242.208 
L 397.152031 242.208 
" style="fill: none; stroke: #000000; stroke-width: 0.8; stroke-linejoin: miter; stroke-linecap: square"/>
   </g>
   <g id="patch_6">
    <path d="M 40.032031 7.2 
L 397.152031 7.2 
" style="fill: none; stroke: #000000; stroke-width: 0.8; stroke-linejoin: miter; stroke-linecap: square"/>
   </g>
   <g id="text_24">
    <!-- 47.0403 -->
    <g transform="translate(57.192343 165.056477) scale(0.09 -0.09)">
     <defs>
      <path id="SimSun-2e" d="M 800 25 
Q 650 25 537 125 
Q 425 225 425 400 
Q 425 575 537 675 
Q 650 775 800 775 
Q 950 775 1062 662 
Q 1175 550 1175 400 
Q 1175 225 1062 125 
Q 950 25 800 25 
z
" transform="scale(0.015625)"/>
     </defs>
     <use xlink:href="#SimSun-34"/>
     <use xlink:href="#SimSun-37" x="50"/>
     <use xlink:href="#SimSun-2e" x="100"/>
     <use xlink:href="#SimSun-30" x="150"/>
     <use xlink:href="#SimSun-34" x="200"/>
     <use xlink:href="#SimSun-30" x="250"/>
     <use xlink:href="#SimSun-33" x="300"/>
    </g>
   </g>
   <g id="text_25">
    <!-- 70.0416 -->
    <g transform="translate(57.192343 129.048547) scale(0.09 -0.09)">
     <use xlink:href="#SimSun-37"/>
     <use xlink:href="#SimSun-30" x="50"/>
     <use xlink:href="#SimSun-2e" x="100"/>
     <use xlink:href="#SimSun-30" x="150"/>
     <use xlink:href="#SimSun-34" x="200"/>
     <use xlink:href="#SimSun-31" x="250"/>
     <use xlink:href="#SimSun-36" x="300"/>
    </g>
   </g>
   <g id="text_26">
    <!-- 67.5640 -->
    <g transform="translate(57.192343 142.320015) scale(0.09 -0.09)">
     <use xlink:href="#SimSun-36"/>
     <use xlink:href="#SimSun-37" x="50"/>
     <use xlink:href="#SimSun-2e" x="100"/>
     <use xlink:href="#SimSun-35" x="150"/>
     <use xlink:href="#SimSun-36" x="200"/>
     <use xlink:href="#SimSun-34" x="250"/>
     <use xlink:href="#SimSun-30" x="300"/>
    </g>
   </g>
   <g id="text_27">
    <!-- 23.2706 -->
    <g transform="translate(57.192343 202.267182) scale(0.09 -0.09)">
     <use xlink:href="#SimSun-32"/>
     <use xlink:href="#SimSun-33" x="50"/>
     <use xlink:href="#SimSun-2e" x="100"/>
     <use xlink:href="#SimSun-32" x="150"/>
     <use xlink:href="#SimSun-37" x="200"/>
     <use xlink:href="#SimSun-30" x="250"/>
     <use xlink:href="#SimSun-36" x="300"/>
    </g>
   </g>
   <g id="legend_1">
    <g id="patch_7">
     <path d="M 46.332031 62.810156 
L 102.132031 62.810156 
Q 103.932031 62.810156 103.932031 61.010156 
L 103.932031 13.5 
Q 103.932031 11.7 102.132031 11.7 
L 46.332031 11.7 
Q 44.532031 11.7 44.532031 13.5 
L 44.532031 61.010156 
Q 44.532031 62.810156 46.332031 62.810156 
z
" style="fill: #ffffff; opacity: 0.8; stroke: #cccccc; stroke-linejoin: miter"/>
    </g>
    <g id="line2d_30">
     <path d="M 48.132031 18.583594 
L 57.132031 18.583594 
L 66.132031 18.583594 
" style="fill: none; stroke: #1f77b4; stroke-linecap: square"/>
    </g>
    <g id="text_28">
     <!-- Orbit -->
     <g transform="translate(73.332031 21.733594) scale(0.09 -0.09)">
      <defs>
       <path id="SimSun-4f" d="M 700 2250 
Q 700 1175 962 687 
Q 1225 200 1625 200 
Q 2050 200 2300 662 
Q 2550 1125 2550 2250 
Q 2550 3150 2337 3700 
Q 2125 4250 1625 4250 
Q 1200 4250 950 3750 
Q 700 3250 700 2250 
z
M 3025 2250 
Q 3025 1225 2625 637 
Q 2225 50 1625 50 
Q 1050 50 637 650 
Q 225 1250 225 2250 
Q 225 3225 612 3825 
Q 1000 4425 1625 4425 
Q 2275 4425 2650 3787 
Q 3025 3150 3025 2250 
z
" transform="scale(0.015625)"/>
       <path id="SimSun-72" d="M 1275 2125 
Q 1525 2525 1812 2737 
Q 2100 2950 2400 2950 
Q 2650 2950 2787 2837 
Q 2925 2725 2925 2575 
Q 2925 2450 2862 2375 
Q 2800 2300 2675 2300 
Q 2550 2300 2487 2375 
Q 2425 2450 2450 2575 
Q 2450 2650 2425 2700 
Q 2400 2750 2275 2750 
Q 2075 2750 1787 2500 
Q 1500 2250 1275 1800 
L 1275 450 
Q 1275 350 1337 300 
Q 1400 250 1500 250 
L 2050 250 
L 2050 100 
L 200 100 
L 200 250 
L 700 250 
Q 825 250 875 300 
Q 925 350 925 450 
L 925 2525 
Q 925 2625 875 2687 
Q 825 2750 700 2750 
L 225 2750 
L 225 2900 
L 425 2900 
Q 600 2900 837 2937 
Q 1075 2975 1200 3025 
L 1275 3025 
L 1275 2125 
z
" transform="scale(0.015625)"/>
       <path id="SimSun-62" d="M 875 2325 
Q 1000 2600 1275 2762 
Q 1550 2925 1800 2925 
Q 2325 2925 2587 2562 
Q 2850 2200 2850 1500 
Q 2850 800 2512 437 
Q 2175 75 1675 75 
Q 1425 75 1212 162 
Q 1000 250 850 400 
L 625 100 
L 525 100 
L 525 4025 
Q 525 4125 475 4175 
Q 425 4225 300 4225 
L 150 4225 
L 150 4375 
L 375 4375 
Q 500 4375 625 4425 
Q 750 4475 875 4575 
L 875 2325 
z
M 875 925 
Q 875 650 1062 450 
Q 1250 250 1625 250 
Q 2075 250 2262 562 
Q 2450 875 2450 1500 
Q 2450 2100 2287 2412 
Q 2125 2725 1775 2725 
Q 1475 2725 1250 2550 
Q 1025 2375 875 1925 
L 875 925 
z
" transform="scale(0.015625)"/>
       <path id="SimSun-69" d="M 1425 2525 
Q 1425 2625 1375 2687 
Q 1325 2750 1200 2750 
L 675 2750 
L 675 2900 
L 925 2900 
Q 1150 2900 1350 2937 
Q 1550 2975 1725 3075 
L 1775 3075 
L 1775 450 
Q 1775 350 1837 300 
Q 1900 250 2000 250 
L 2525 250 
L 2525 100 
L 675 100 
L 675 250 
L 1200 250 
Q 1325 250 1375 300 
Q 1425 350 1425 450 
L 1425 2525 
z
M 1725 3025 
L 1725 3025 
z
M 1625 4425 
Q 1750 4425 1850 4337 
Q 1950 4250 1950 4125 
Q 1950 4000 1850 3900 
Q 1750 3800 1625 3800 
Q 1500 3800 1400 3900 
Q 1300 4000 1300 4125 
Q 1300 4250 1400 4337 
Q 1500 4425 1625 4425 
z
" transform="scale(0.015625)"/>
       <path id="SimSun-74" d="M 1500 900 
Q 1500 550 1625 425 
Q 1750 300 2000 300 
Q 2250 300 2400 462 
Q 2550 625 2600 925 
L 2725 875 
Q 2675 525 2462 300 
Q 2250 75 1900 75 
Q 1525 75 1337 300 
Q 1150 525 1150 1000 
L 1150 2750 
L 400 2750 
L 400 2900 
L 600 2900 
Q 900 2900 1087 3087 
Q 1275 3275 1325 3675 
L 1350 3875 
L 1500 3875 
L 1500 2900 
L 2500 2900 
L 2500 2750 
L 1500 2750 
L 1500 900 
z
" transform="scale(0.015625)"/>
      </defs>
      <use xlink:href="#SimSun-4f"/>
      <use xlink:href="#SimSun-72" x="50"/>
      <use xlink:href="#SimSun-62" x="100"/>
      <use xlink:href="#SimSun-69" x="150"/>
      <use xlink:href="#SimSun-74" x="200"/>
     </g>
    </g>
    <g id="line2d_31">
     <path d="M 48.132031 30.677344 
L 57.132031 30.677344 
L 66.132031 30.677344 
" style="fill: none; stroke: #ff7f0e; stroke-linecap: square"/>
    </g>
    <g id="text_29">
     <!-- Region -->
     <g transform="translate(73.332031 33.827344) scale(0.09 -0.09)">
      <defs>
       <path id="SimSun-52" d="M 2825 3375 
Q 2825 2875 2550 2600 
Q 2275 2325 1925 2275 
L 2675 425 
Q 2725 325 2787 287 
Q 2850 250 2925 250 
L 3075 250 
L 3075 100 
L 2375 100 
L 1550 2250 
L 975 2250 
L 975 450 
Q 975 350 1037 300 
Q 1100 250 1200 250 
L 1350 250 
L 1350 100 
L 200 100 
L 200 250 
L 350 250 
Q 475 250 525 300 
Q 575 350 575 450 
L 575 4025 
Q 575 4125 525 4175 
Q 475 4225 350 4225 
L 200 4225 
L 200 4375 
L 1625 4375 
Q 2200 4375 2512 4125 
Q 2825 3875 2825 3375 
z
M 2750 250 
L 2750 250 
z
M 975 2400 
L 1525 2400 
Q 1900 2400 2150 2625 
Q 2400 2850 2400 3325 
Q 2400 3750 2175 3987 
Q 1950 4225 1475 4225 
L 1200 4225 
Q 1100 4225 1037 4175 
Q 975 4125 975 4025 
L 975 2400 
z
" transform="scale(0.015625)"/>
       <path id="SimSun-65" d="M 2400 1650 
Q 2425 2200 2212 2487 
Q 2000 2775 1650 2775 
Q 1275 2775 1037 2475 
Q 800 2175 800 1650 
L 2400 1650 
z
M 800 1500 
Q 800 825 1062 537 
Q 1325 250 1750 250 
Q 2075 250 2300 437 
Q 2525 625 2625 900 
L 2750 850 
Q 2675 575 2412 312 
Q 2150 50 1700 50 
Q 1125 50 762 425 
Q 400 800 400 1500 
Q 400 2125 762 2537 
Q 1125 2950 1650 2950 
Q 2125 2950 2475 2625 
Q 2825 2300 2825 1500 
L 800 1500 
z
" transform="scale(0.015625)"/>
       <path id="SimSun-67" d="M 875 1975 
Q 875 1675 1050 1462 
Q 1225 1250 1525 1250 
Q 1850 1250 2012 1437 
Q 2175 1625 2175 1975 
Q 2175 2400 1987 2587 
Q 1800 2775 1525 2775 
Q 1250 2775 1062 2587 
Q 875 2400 875 1975 
z
M 2100 625 
Q 2475 575 2650 412 
Q 2825 250 2825 -25 
Q 2825 -400 2512 -625 
Q 2200 -850 1525 -850 
Q 1000 -850 675 -637 
Q 350 -425 350 -150 
Q 350 25 475 200 
Q 600 375 875 475 
Q 725 550 637 637 
Q 550 725 550 850 
Q 550 1000 650 1112 
Q 750 1225 900 1300 
Q 750 1425 637 1600 
Q 525 1775 525 1975 
Q 525 2350 787 2637 
Q 1050 2925 1525 2925 
Q 1725 2925 1912 2875 
Q 2100 2825 2225 2700 
Q 2400 2825 2537 2887 
Q 2675 2950 2775 2950 
Q 2900 2950 2950 2862 
Q 3000 2775 3000 2700 
Q 3000 2600 2962 2537 
Q 2925 2475 2825 2475 
Q 2750 2475 2700 2512 
Q 2650 2550 2625 2625 
Q 2600 2700 2512 2687 
Q 2425 2675 2325 2600 
Q 2425 2500 2475 2325 
Q 2525 2150 2525 1975 
Q 2525 1675 2287 1387 
Q 2050 1100 1525 1100 
Q 1375 1100 1250 1137 
Q 1125 1175 1050 1225 
Q 950 1175 900 1100 
Q 850 1025 850 975 
Q 850 875 900 825 
Q 950 775 1050 775 
Q 1375 725 1637 687 
Q 1900 650 2100 625 
z
M 1075 425 
Q 850 325 762 187 
Q 675 50 675 -150 
Q 675 -350 900 -525 
Q 1125 -700 1575 -700 
Q 2000 -700 2250 -562 
Q 2500 -425 2500 -150 
Q 2500 25 2437 125 
Q 2375 225 2250 250 
Q 2000 300 1700 350 
Q 1400 375 1075 425 
z
" transform="scale(0.015625)"/>
       <path id="SimSun-6f" d="M 2900 1500 
Q 2900 875 2525 462 
Q 2150 50 1600 50 
Q 1025 50 662 475 
Q 300 900 300 1500 
Q 300 2050 662 2500 
Q 1025 2950 1600 2950 
Q 2200 2950 2550 2500 
Q 2900 2050 2900 1500 
z
M 700 1475 
Q 700 825 962 512 
Q 1225 200 1600 200 
Q 2025 200 2262 537 
Q 2500 875 2500 1475 
Q 2500 2125 2237 2462 
Q 1975 2800 1600 2800 
Q 1250 2800 975 2462 
Q 700 2125 700 1475 
z
" transform="scale(0.015625)"/>
       <path id="SimSun-6e" d="M 200 100 
L 200 250 
L 325 250 
Q 450 250 500 300 
Q 550 350 550 450 
L 550 2600 
Q 550 2675 525 2712 
Q 500 2750 425 2750 
L 225 2750 
L 225 2900 
L 400 2900 
Q 525 2900 637 2925 
Q 750 2950 850 3025 
L 900 3025 
L 900 2450 
Q 1125 2700 1350 2825 
Q 1575 2950 1825 2950 
Q 2250 2950 2450 2725 
Q 2650 2500 2650 2050 
L 2650 450 
Q 2650 350 2712 300 
Q 2775 250 2875 250 
L 3000 250 
L 3000 100 
L 1950 100 
L 1950 250 
L 2075 250 
Q 2200 250 2250 300 
Q 2300 350 2300 450 
L 2300 2125 
Q 2300 2425 2175 2587 
Q 2050 2750 1800 2750 
Q 1575 2750 1337 2600 
Q 1100 2450 900 2175 
L 900 450 
Q 900 350 962 300 
Q 1025 250 1125 250 
L 1250 250 
L 1250 100 
L 200 100 
z
" transform="scale(0.015625)"/>
      </defs>
      <use xlink:href="#SimSun-52"/>
      <use xlink:href="#SimSun-65" x="50"/>
      <use xlink:href="#SimSun-67" x="100"/>
      <use xlink:href="#SimSun-69" x="150"/>
      <use xlink:href="#SimSun-6f" x="200"/>
      <use xlink:href="#SimSun-6e" x="250"/>
     </g>
    </g>
    <g id="line2d_32">
     <path d="M 48.132031 42.80625 
L 57.132031 42.80625 
L 66.132031 42.80625 
" style="fill: none; stroke: #2ca02c; stroke-linecap: square"/>
    </g>
    <g id="text_30">
     <!-- Greedy -->
     <g transform="translate(73.332031 45.95625) scale(0.09 -0.09)">
      <defs>
       <path id="SimSun-47" d="M 1625 4250 
Q 1250 4250 937 3737 
Q 625 3225 625 2175 
Q 625 1475 862 850 
Q 1100 225 1650 225 
Q 1925 225 2087 337 
Q 2250 450 2275 675 
L 2275 1525 
Q 2275 1675 2200 1750 
Q 2125 1825 1975 1825 
L 1825 1825 
L 1825 1975 
L 3075 1975 
L 3075 1825 
L 2950 1825 
Q 2825 1825 2750 1750 
Q 2675 1675 2675 1550 
L 2675 300 
Q 2625 325 2587 337 
Q 2550 350 2500 350 
Q 2450 350 2400 337 
Q 2350 325 2300 275 
Q 2150 150 1987 100 
Q 1825 50 1625 50 
Q 875 50 525 712 
Q 175 1375 175 2175 
Q 175 3100 587 3762 
Q 1000 4425 1625 4425 
Q 1775 4425 1975 4350 
Q 2175 4275 2225 4275 
Q 2300 4275 2375 4312 
Q 2450 4350 2500 4425 
L 2700 3300 
L 2550 3250 
Q 2400 3775 2175 4012 
Q 1950 4250 1625 4250 
z
" transform="scale(0.015625)"/>
       <path id="SimSun-64" d="M 2300 2350 
Q 2175 2550 1975 2637 
Q 1775 2725 1575 2725 
Q 1200 2725 987 2375 
Q 775 2025 775 1450 
Q 775 850 975 562 
Q 1175 275 1550 275 
Q 1825 275 2012 450 
Q 2200 625 2300 975 
L 2300 2350 
z
M 1475 75 
Q 1025 75 700 437 
Q 375 800 375 1500 
Q 375 2150 725 2537 
Q 1075 2925 1550 2925 
Q 1750 2925 1962 2837 
Q 2175 2750 2300 2575 
L 2300 3925 
Q 2300 4075 2250 4150 
Q 2200 4225 2075 4225 
L 1875 4225 
L 1875 4375 
L 2150 4375 
Q 2275 4375 2400 4425 
Q 2525 4475 2650 4575 
L 2650 625 
Q 2650 500 2700 450 
Q 2750 400 2850 400 
L 3025 400 
L 3025 250 
L 2875 250 
Q 2775 250 2637 212 
Q 2500 175 2350 100 
L 2300 100 
L 2300 575 
Q 2175 350 1962 212 
Q 1750 75 1475 75 
z
" transform="scale(0.015625)"/>
       <path id="SimSun-79" d="M 1650 800 
L 1700 800 
L 2250 2475 
Q 2300 2600 2237 2675 
Q 2175 2750 2075 2750 
L 1925 2750 
L 1925 2900 
L 2975 2900 
L 2975 2750 
L 2825 2750 
Q 2725 2750 2625 2675 
Q 2525 2600 2475 2475 
L 1625 0 
Q 1500 -375 1312 -587 
Q 1125 -800 825 -800 
Q 650 -800 550 -737 
Q 450 -675 450 -550 
Q 450 -475 512 -400 
Q 575 -325 700 -325 
Q 800 -325 900 -425 
Q 1000 -500 1050 -500 
Q 1125 -500 1175 -475 
Q 1225 -450 1250 -375 
Q 1325 -250 1400 -62 
Q 1475 125 1525 325 
L 675 2525 
Q 650 2625 562 2687 
Q 475 2750 375 2750 
L 275 2750 
L 275 2900 
L 1325 2900 
L 1325 2750 
L 1225 2750 
Q 1125 2750 1075 2687 
Q 1025 2625 1050 2500 
L 1650 800 
z
M 950 2750 
L 950 2750 
z
M 600 2750 
L 600 2750 
z
M 2575 2750 
L 2575 2750 
z
M 2325 2750 
L 2325 2750 
z
" transform="scale(0.015625)"/>
      </defs>
      <use xlink:href="#SimSun-47"/>
      <use xlink:href="#SimSun-72" x="50"/>
      <use xlink:href="#SimSun-65" x="100"/>
      <use xlink:href="#SimSun-65" x="150"/>
      <use xlink:href="#SimSun-64" x="200"/>
      <use xlink:href="#SimSun-79" x="250"/>
     </g>
    </g>
    <g id="line2d_33">
     <path d="M 48.132031 54.9 
L 57.132031 54.9 
L 66.132031 54.9 
" style="fill: none; stroke: #d62728; stroke-linecap: square"/>
    </g>
    <g id="text_31">
     <!-- SLFDG -->
     <g transform="translate(73.332031 58.05) scale(0.09 -0.09)">
      <defs>
       <path id="SimSun-53" d="M 1500 2150 
Q 825 2450 575 2675 
Q 325 2900 325 3375 
Q 325 3750 637 4087 
Q 950 4425 1525 4425 
Q 1775 4425 2000 4350 
Q 2225 4250 2325 4250 
Q 2400 4250 2462 4287 
Q 2525 4325 2575 4425 
L 2675 3400 
L 2550 3350 
Q 2325 3875 2087 4062 
Q 1850 4250 1475 4250 
Q 1000 4250 825 3987 
Q 650 3725 650 3425 
Q 650 3150 812 2987 
Q 975 2825 1700 2500 
Q 2300 2250 2562 1937 
Q 2825 1625 2825 1200 
Q 2825 750 2512 400 
Q 2200 50 1600 50 
Q 1350 50 1150 150 
Q 925 225 800 225 
Q 725 225 650 175 
Q 575 125 475 50 
L 275 1275 
L 425 1325 
Q 600 700 912 462 
Q 1225 225 1625 225 
Q 2050 225 2262 475 
Q 2475 725 2475 1200 
Q 2475 1450 2237 1687 
Q 2000 1925 1500 2150 
z
" transform="scale(0.015625)"/>
       <path id="SimSun-4c" d="M 1000 450 
Q 1000 350 1062 300 
Q 1125 250 1225 250 
L 1900 250 
Q 2250 250 2500 462 
Q 2750 675 2875 1125 
L 3000 1075 
L 2775 100 
L 200 100 
L 200 250 
L 375 250 
Q 500 250 550 300 
Q 600 350 600 450 
L 600 4025 
Q 600 4125 550 4175 
Q 500 4225 375 4225 
L 225 4225 
L 225 4375 
L 1400 4375 
L 1400 4225 
L 1225 4225 
Q 1125 4225 1062 4175 
Q 1000 4125 1000 4025 
L 1000 450 
z
" transform="scale(0.015625)"/>
       <path id="SimSun-46" d="M 1350 250 
L 1350 100 
L 150 100 
L 150 250 
L 325 250 
Q 450 250 500 300 
Q 550 350 550 450 
L 550 4025 
Q 550 4125 500 4175 
Q 450 4225 325 4225 
L 175 4225 
L 175 4375 
L 2775 4375 
L 3075 3475 
L 2950 3425 
Q 2750 3825 2475 4025 
Q 2200 4225 1875 4225 
L 1175 4225 
Q 1075 4225 1012 4175 
Q 950 4125 950 4025 
L 950 2425 
L 1775 2425 
Q 2025 2425 2137 2537 
Q 2250 2650 2250 2900 
L 2250 3025 
L 2400 3025 
L 2400 1575 
L 2250 1575 
L 2250 1675 
Q 2250 1975 2137 2125 
Q 2025 2275 1775 2275 
L 950 2275 
L 950 450 
Q 950 350 1012 300 
Q 1075 250 1175 250 
L 1350 250 
z
" transform="scale(0.015625)"/>
       <path id="SimSun-44" d="M 2500 2275 
Q 2500 3350 2175 3787 
Q 1850 4225 1275 4225 
Q 1100 4225 1012 4175 
Q 925 4125 925 4025 
L 925 450 
Q 925 350 1000 300 
Q 1075 250 1200 250 
Q 1750 250 2125 662 
Q 2500 1075 2500 2275 
z
M 525 4025 
Q 525 4125 475 4175 
Q 425 4225 300 4225 
L 150 4225 
L 150 4375 
L 1275 4375 
Q 2050 4375 2512 3875 
Q 2975 3375 2975 2325 
Q 2975 1175 2525 637 
Q 2075 100 1200 100 
L 125 100 
L 125 250 
L 300 250 
Q 425 250 475 300 
Q 525 350 525 450 
L 525 4025 
z
" transform="scale(0.015625)"/>
      </defs>
      <use xlink:href="#SimSun-53"/>
      <use xlink:href="#SimSun-4c" x="50"/>
      <use xlink:href="#SimSun-46" x="100"/>
      <use xlink:href="#SimSun-44" x="150"/>
      <use xlink:href="#SimSun-47" x="200"/>
     </g>
    </g>
   </g>
  </g>
 </g>
 <defs>
  <clipPath id="p0e38f19a84">
   <rect x="40.032031" y="7.2" width="357.12" height="235.008"/>
  </clipPath>
 </defs>
</svg>
